<svg width="105" height="105" viewBox="0 0 105 105" fill="none" xmlns="http://www.w3.org/2000/svg">
<g style="mix-blend-mode:color-dodge" opacity="0.5" filter="url(#filter0_d_215_321)">
<rect x="4" width="97" height="97" rx="48.5" fill="white"/>
<rect x="8.84998" y="4.8501" width="87.3" height="87.3" rx="43.65" fill="black"/>
<rect x="8.84998" y="4.8501" width="87.3" height="87.3" rx="43.65" fill="#1B0E4D" fill-opacity="0.2"/>
<path d="M63.9451 36.898L62.2777 35.0215L53.3527 44.6311L63.9451 36.898Z" fill="url(#paint0_linear_215_321)"/>
<path d="M63.9451 36.898L62.2777 35.0215L53.3527 44.6311L63.9451 36.898Z" fill="url(#paint1_linear_215_321)" fill-opacity="0.2"/>
<g filter="url(#filter1_i_215_321)">
<path d="M61.7995 48.5618C62.8922 46.7894 63.3646 44.7252 63.1368 42.7184C62.909 40.7116 62.443 38.9957 60.9973 37.6589C59.5515 36.3222 57.2147 35.4466 55.2025 35.3822C53.1904 35.3178 51.1782 35.9583 49.5064 37.1954L49.8558 37.6938C51.4089 36.5446 53.2782 35.9496 55.1474 36.0094C57.0167 36.0692 58.7712 36.7801 60.1143 38.0219C61.4574 39.2638 62.3066 40.9603 62.5182 42.8246C62.7299 44.6888 62.291 46.6064 61.2759 48.253L61.7995 48.5618Z" fill="#757575"/>
</g>
<path d="M60.3287 8.24512H66.7439V29.722H60.3287V8.24512Z" fill="url(#paint2_linear_215_321)"/>
<path d="M91.9304 31.6743V38.0895H68.6964V31.6743H91.9304Z" fill="url(#paint3_linear_215_321)"/>
<path d="M60.8214 38.4616C58.5469 36.1871 58.5469 32.4994 60.8214 30.2249L75.3494 15.6968C76.4874 14.5589 78.3323 14.5589 79.4703 15.6968L83.5861 19.8127C84.7241 20.9506 84.7241 22.7956 83.5861 23.9335L69.0581 38.4616C66.7836 40.7361 63.0959 40.7361 60.8214 38.4616V38.4616Z" fill="url(#paint4_linear_215_321)"/>
<path d="M21.4572 20.564V20.8245" stroke="#FFEBC5" stroke-width="1.455" stroke-linecap="round"/>
<path d="M29.837 43.2812L29.7173 43.6405" stroke="#FFEBC5" stroke-width="1.455" stroke-linecap="round"/>
<path d="M29.705 13.5801V13.7509" stroke="#FFEBC5" stroke-width="1.455" stroke-linecap="round"/>
<path d="M40.19 15.0718C40.1608 15.1791 40.1243 15.2602 40.0762 15.3564" stroke="#FFEBC5" stroke-width="1.455" stroke-linecap="round"/>
<path d="M39.0511 25.3765V25.6042" stroke="#FFEBC5" stroke-width="1.455" stroke-linecap="round"/>
<path d="M29.4298 26.4585V26.5724" stroke="#FFEBC5" stroke-width="1.455" stroke-linecap="round"/>
<path d="M21.693 38.3857C21.7461 38.486 21.8055 38.5658 21.8727 38.6553" stroke="#FFEBC5" stroke-width="1.455" stroke-linecap="round"/>
<path d="M75.0956 50.7153V50.789" stroke="#FFEBC5" stroke-width="1.455" stroke-linecap="round"/>
<path d="M81.8037 52.5732L81.855 52.6758" stroke="#FFEBC5" stroke-width="1.455" stroke-linecap="round"/>
<path d="M78.6768 57.2378L78.728 57.2891" stroke="#FFEBC5" stroke-width="1.455" stroke-linecap="round"/>
<path d="M50.4048 63.8548C50.4048 64.3204 50.3078 64.7731 50.1138 65.2128C49.9327 65.6396 49.687 66.0664 49.3766 66.4932C49.0662 66.9071 48.717 67.321 48.329 67.7348C47.941 68.1358 47.553 68.5302 47.165 68.9182C46.9451 69.1381 46.6864 69.3968 46.389 69.6942C46.1044 69.9917 45.8328 70.3021 45.5742 70.6254C45.3155 70.9488 45.0956 71.2592 44.9146 71.5566C44.7464 71.8541 44.6624 72.1128 44.6624 72.3326H50.851V73.8652H42.703C42.69 73.7876 42.6836 73.71 42.6836 73.6324C42.6836 73.5548 42.6836 73.4837 42.6836 73.419C42.6836 72.8112 42.7806 72.2486 42.9746 71.7312C43.1815 71.201 43.4466 70.703 43.77 70.2374C44.0933 69.7718 44.4554 69.3321 44.8564 68.9182C45.2573 68.5044 45.6518 68.1034 46.0398 67.7154C46.3631 67.405 46.667 67.1011 46.9516 66.8036C47.249 66.4932 47.5077 66.1893 47.7276 65.8918C47.9604 65.5814 48.1414 65.2646 48.2708 64.9412C48.413 64.6179 48.4842 64.2752 48.4842 63.913C48.4842 63.525 48.4195 63.1952 48.2902 62.9236C48.1738 62.652 48.0121 62.4257 47.8052 62.2446C47.5982 62.0636 47.3525 61.9342 47.068 61.8566C46.7964 61.7661 46.5054 61.7208 46.195 61.7208C45.8199 61.7208 45.4772 61.7726 45.1668 61.876C44.8564 61.9795 44.5783 62.1024 44.3326 62.2446C44.0868 62.374 43.8799 62.5162 43.7118 62.6714C43.5436 62.8137 43.4143 62.9236 43.3238 63.0012L42.4314 61.7208C42.5478 61.5915 42.7224 61.4363 42.9552 61.2552C43.188 61.0612 43.466 60.8802 43.7894 60.712C44.1127 60.5439 44.4748 60.4016 44.8758 60.2852C45.2767 60.1688 45.71 60.1106 46.1756 60.1106C47.5853 60.1106 48.6394 60.4404 49.3378 61.1C50.0491 61.7467 50.4048 62.665 50.4048 63.8548ZM53.2654 67.1334C53.2654 64.883 53.6598 63.15 54.4488 61.9342C55.2506 60.7185 56.3564 60.1106 57.7662 60.1106C59.1759 60.1106 60.2752 60.7185 61.0642 61.9342C61.866 63.15 62.267 64.883 62.267 67.1334C62.267 69.3838 61.866 71.1169 61.0642 72.3326C60.2752 73.5484 59.1759 74.1562 57.7662 74.1562C56.3564 74.1562 55.2506 73.5484 54.4488 72.3326C53.6598 71.1169 53.2654 69.3838 53.2654 67.1334ZM60.3658 67.1334C60.3658 66.3962 60.3205 65.6978 60.23 65.0382C60.1524 64.3786 60.0101 63.8031 59.8032 63.3116C59.6092 62.8202 59.344 62.4322 59.0078 62.1476C58.6715 61.8502 58.2576 61.7014 57.7662 61.7014C57.2747 61.7014 56.8608 61.8502 56.5246 62.1476C56.1883 62.4322 55.9167 62.8202 55.7098 63.3116C55.5158 63.8031 55.3735 64.3786 55.283 65.0382C55.2054 65.6978 55.1666 66.3962 55.1666 67.1334C55.1666 67.8706 55.2054 68.569 55.283 69.2286C55.3735 69.8882 55.5158 70.4638 55.7098 70.9552C55.9167 71.4467 56.1883 71.8412 56.5246 72.1386C56.8608 72.4232 57.2747 72.5654 57.7662 72.5654C58.2576 72.5654 58.6715 72.4232 59.0078 72.1386C59.344 71.8412 59.6092 71.4467 59.8032 70.9552C60.0101 70.4638 60.1524 69.8882 60.23 69.2286C60.3205 68.569 60.3658 67.8706 60.3658 67.1334Z" fill="#7FFF00"/>
</g>
<defs>
<filter id="filter0_d_215_321" x="0" y="0" width="105" height="105" filterUnits="userSpaceOnUse" color-interpolation-filters="sRGB">
<feFlood flood-opacity="0" result="BackgroundImageFix"/>
<feColorMatrix in="SourceAlpha" type="matrix" values="0 0 0 0 0 0 0 0 0 0 0 0 0 0 0 0 0 0 127 0" result="hardAlpha"/>
<feOffset dy="4"/>
<feGaussianBlur stdDeviation="2"/>
<feComposite in2="hardAlpha" operator="out"/>
<feColorMatrix type="matrix" values="0 0 0 0 0 0 0 0 0 0 0 0 0 0 0 0 0 0 0.25 0"/>
<feBlend mode="normal" in2="BackgroundImageFix" result="effect1_dropShadow_215_321"/>
<feBlend mode="normal" in="SourceGraphic" in2="effect1_dropShadow_215_321" result="shape"/>
</filter>
<filter id="filter1_i_215_321" x="49.5063" y="35.3779" width="14.8021" height="14.2998" filterUnits="userSpaceOnUse" color-interpolation-filters="sRGB">
<feFlood flood-opacity="0" result="BackgroundImageFix"/>
<feBlend mode="normal" in="SourceGraphic" in2="BackgroundImageFix" result="shape"/>
<feColorMatrix in="SourceAlpha" type="matrix" values="0 0 0 0 0 0 0 0 0 0 0 0 0 0 0 0 0 0 127 0" result="hardAlpha"/>
<feOffset dx="13.946" dy="1.11568"/>
<feGaussianBlur stdDeviation="0.557841"/>
<feComposite in2="hardAlpha" operator="arithmetic" k2="-1" k3="1"/>
<feColorMatrix type="matrix" values="0 0 0 0 1 0 0 0 0 1 0 0 0 0 1 0 0 0 0.25 0"/>
<feBlend mode="normal" in2="shape" result="effect1_innerShadow_215_321"/>
</filter>
<linearGradient id="paint0_linear_215_321" x1="57.4155" y1="39.3401" x2="59.6143" y2="41.5932" gradientUnits="userSpaceOnUse">
<stop stop-color="#666666"/>
<stop stop-color="#666666"/>
<stop offset="0.537865" stop-color="#030303"/>
<stop offset="0.9999"/>
</linearGradient>
<linearGradient id="paint1_linear_215_321" x1="53.334" y1="44.7683" x2="61.305" y2="37.3923" gradientUnits="userSpaceOnUse">
<stop stop-color="#FF0000"/>
<stop offset="0.25" stop-color="#490000"/>
<stop offset="0.5" stop-color="#290000"/>
<stop offset="0.75" stop-color="#140000"/>
<stop offset="1"/>
</linearGradient>
<linearGradient id="paint2_linear_215_321" x1="59.2595" y1="12.1825" x2="71.187" y2="18.5111" gradientUnits="userSpaceOnUse">
<stop stop-color="#1E1E1E"/>
<stop offset="0.065" stop-color="#666666"/>
<stop offset="0.585"/>
</linearGradient>
<linearGradient id="paint3_linear_215_321" x1="89.2198" y1="33.6791" x2="90.9536" y2="38.9982" gradientUnits="userSpaceOnUse">
<stop/>
<stop offset="0.577277" stop-color="#5A5A5A"/>
<stop offset="1" stop-color="#303030"/>
</linearGradient>
<linearGradient id="paint4_linear_215_321" x1="67.0564" y1="23.9898" x2="75.2931" y2="32.2265" gradientUnits="userSpaceOnUse">
<stop stop-color="#C99B45"/>
<stop offset="0.25" stop-color="#FFC65A"/>
<stop offset="0.5" stop-color="#FFD687"/>
<stop offset="0.75" stop-color="#9E7424"/>
<stop offset="1" stop-color="#422F0B"/>
</linearGradient>
</defs>
</svg>
