<svg width="105" height="108" viewBox="0 0 105 108" fill="none" xmlns="http://www.w3.org/2000/svg">
<g clip-path="url(#clip0_167_144933)">
<path d="M11.8335 0.0855653H0.0166838L0 55.8796C0.000680598 58.5544 1.02127 61.1193 2.83728 63.0104C4.6533 64.9016 7.11605 65.9639 9.68394 65.9639C10.2897 65.9639 11.8335 66 11.8335 66V0.0855653ZM18.3451 0.0855653H30.1619L30.1799 55.8796C30.1795 58.5542 29.1592 61.1192 27.3434 63.0104C25.5276 64.9015 23.065 65.9639 20.4972 65.9639C19.8902 65.9639 18.3451 66 18.3451 66V0.0855653ZM37.1419 10.1231V55.8796C37.1422 58.5542 38.1625 61.1192 39.9783 63.0104C41.7941 64.9015 44.2567 65.9639 46.8245 65.9639C47.4315 65.9639 48.9754 66 48.9754 66V0C48.9754 0 47.4354 0.0387746 46.8245 0.0387746C44.2567 0.0387746 41.7941 1.10118 39.9783 2.99232C38.1625 4.88346 37.1422 7.44844 37.1419 10.1231ZM67.3204 10.1231C67.3201 7.44844 66.2998 4.88346 64.484 2.99232C62.6682 1.10118 60.2056 0.0387746 57.6378 0.0387746C57.0308 0.0387746 55.4869 0 55.4869 0V66C55.4869 66 57.0269 65.9639 57.6378 65.9639C60.2056 65.9639 62.6682 64.9015 64.484 63.0104C66.2998 61.1192 67.3201 58.5542 67.3204 55.8796V10.1231ZM86.6601 0.0855653H74.8445L74.8279 55.8796C74.8285 58.5541 75.8489 61.1189 77.6647 63.01C79.4804 64.901 81.9429 65.9636 84.5105 65.9639C85.115 65.9639 86.6601 66 86.6601 66V0.0855653ZM93.1665 0.0855653H104.981L105 55.8796C104.999 58.5543 103.978 61.119 102.162 63.01C100.346 64.9011 97.8839 65.9636 95.3161 65.9639C94.7116 65.9639 93.1665 66 93.1665 66V0.0855653Z" fill="#006C40"/>
</g>
<path d="M7.26818 74.787H8.33418V76.594H7.26818V74.787ZM7.81418 69.405C10.4012 69.405 11.9482 70.12 11.9482 71.433C11.9482 72.746 10.4012 73.474 7.81418 73.474C5.21418 73.474 3.68018 72.746 3.68018 71.433C3.68018 70.12 5.21418 69.405 7.81418 69.405ZM7.81418 70.224C5.89018 70.224 4.78518 70.666 4.78518 71.433C4.78518 72.213 5.89018 72.655 7.81418 72.655C9.72518 72.655 10.8302 72.213 10.8302 71.433C10.8302 70.666 9.72518 70.224 7.81418 70.224ZM2.49718 74.228H13.1182V75.112H2.49718V74.228ZM3.78418 76.191H11.7662V78.843H4.87618V80.273H3.81018V78.063H10.7002V77.023H3.78418V76.191ZM3.81018 80.039H12.1172V80.884H3.81018V80.039ZM16.3152 69.977H17.1992V71.42C17.1992 73.721 15.9252 75.554 13.9492 76.321L13.3772 75.463C15.1712 74.826 16.3152 73.24 16.3152 71.42V69.977ZM16.4972 69.977H17.3812V71.459C17.3812 73.058 18.5512 74.566 20.2672 75.177L19.7342 76.022C17.7972 75.32 16.4972 73.526 16.4972 71.459V69.977ZM21.4632 69.249H22.5422V77.933H21.4632V69.249ZM22.2042 72.863H24.2842V73.76H22.2042V72.863ZM15.2492 79.87H23.0622V80.754H15.2492V79.87ZM15.2492 77.114H16.3282V80.299H15.2492V77.114ZM33.2791 69.262H34.3191V81.014H33.2791V69.262ZM31.2901 73.968H33.5521V74.865H31.2901V73.968ZM30.6141 69.522H31.6281V80.416H30.6141V69.522ZM24.7641 77.218H25.5311C27.2471 77.218 28.4171 77.153 29.7821 76.867L29.8861 77.764C28.4821 78.063 27.2991 78.115 25.5311 78.115H24.7641V77.218ZM24.7641 70.692H29.1321V71.576H25.8301V77.621H24.7641V70.692ZM35.2931 70.497H42.2351V71.381H35.2931V70.497ZM38.7641 71.979C40.4281 71.979 41.5721 72.811 41.5721 74.111C41.5721 75.398 40.4281 76.217 38.7641 76.217C37.0741 76.217 35.9431 75.398 35.9431 74.111C35.9431 72.811 37.0741 71.979 38.7641 71.979ZM38.7641 72.824C37.6851 72.824 36.9701 73.318 36.9701 74.111C36.9701 74.878 37.6851 75.385 38.7641 75.385C39.8171 75.385 40.5451 74.878 40.5451 74.111C40.5451 73.318 39.8171 72.824 38.7641 72.824ZM43.3011 69.262H44.3801V76.607H43.3011V69.262ZM44.0811 72.499H46.1221V73.396H44.0811V72.499ZM36.7491 77.244H44.3801V81.014H43.3011V78.128H36.7491V77.244ZM38.2181 69.197H39.2971V70.991H38.2181V69.197ZM47.2781 70.432H54.8441V71.329H47.2781V70.432ZM46.1861 78.479H56.8071V79.376H46.1861V78.479ZM48.7861 74.592H49.8521V78.804H48.7861V74.592ZM54.4931 70.432H55.5591V71.732C55.5591 73.227 55.5591 74.761 55.1561 76.958L54.0771 76.828C54.4931 74.748 54.4931 73.188 54.4931 71.732V70.432ZM51.6851 74.592H52.7511V78.804H51.6851V74.592ZM64.3389 76.672C66.8349 76.672 68.4339 77.491 68.4339 78.843C68.4339 80.182 66.8349 80.988 64.3389 80.988C61.8299 80.988 60.2439 80.182 60.2439 78.843C60.2439 77.491 61.8299 76.672 64.3389 76.672ZM64.3389 77.517C62.4929 77.517 61.3099 78.024 61.3099 78.843C61.3099 79.649 62.4929 80.156 64.3389 80.156C66.1849 80.156 67.3549 79.649 67.3549 78.843C67.3549 78.024 66.1849 77.517 64.3389 77.517ZM60.3349 69.847H67.9009V70.731H60.3349V69.847ZM59.0739 74.735H69.6819V75.606H59.0739V74.735ZM63.4289 72.473H64.4949V74.982H63.4289V72.473ZM67.2769 69.847H68.3299V70.848C68.3299 71.797 68.3299 72.746 68.0179 73.968L66.9519 73.838C67.2769 72.629 67.2769 71.771 67.2769 70.848V69.847ZM70.5129 70.549H75.8299V71.42H70.5129V70.549ZM72.3459 73.903H73.4119V77.881H72.3459V73.903ZM75.3879 70.549H76.4409V71.173C76.4409 72.135 76.4409 73.669 76.1029 75.853L75.0369 75.749C75.3879 73.63 75.3879 72.122 75.3879 71.173V70.549ZM77.9229 69.262H78.9889V81.014H77.9229V69.262ZM78.7029 74.176H80.8739V75.086H78.7029V74.176ZM69.9929 78.453L69.8629 77.543C71.9949 77.543 74.8289 77.504 77.2079 77.205L77.2599 77.998C74.8289 78.388 72.0729 78.44 69.9929 78.453ZM89.8429 69.262H90.8829V81.014H89.8429V69.262ZM87.8539 73.968H90.1159V74.865H87.8539V73.968ZM87.1779 69.522H88.1919V80.416H87.1779V69.522ZM81.3279 77.218H82.0949C83.8109 77.218 84.9809 77.153 86.3459 76.867L86.4499 77.764C85.0459 78.063 83.8629 78.115 82.0949 78.115H81.3279V77.218ZM81.3279 70.692H85.6959V71.576H82.3939V77.621H81.3279V70.692ZM91.8568 70.497H98.7988V71.381H91.8568V70.497ZM95.3278 71.979C96.9918 71.979 98.1358 72.811 98.1358 74.111C98.1358 75.398 96.9918 76.217 95.3278 76.217C93.6378 76.217 92.5068 75.398 92.5068 74.111C92.5068 72.811 93.6378 71.979 95.3278 71.979ZM95.3278 72.824C94.2488 72.824 93.5338 73.318 93.5338 74.111C93.5338 74.878 94.2488 75.385 95.3278 75.385C96.3808 75.385 97.1088 74.878 97.1088 74.111C97.1088 73.318 96.3808 72.824 95.3278 72.824ZM99.8648 69.262H100.944V76.607H99.8648V69.262ZM100.645 72.499H102.686V73.396H100.645V72.499ZM93.3128 77.244H100.944V81.014H99.8648V78.128H93.3128V77.244ZM94.7818 69.197H95.8608V70.991H94.7818V69.197Z" fill="#8B8B8B"/>
<path d="M1.78438 99.288H14.8884V100.392H1.78438V99.288ZM7.67238 95.784H8.98438V99.656H7.67238V95.784ZM7.64038 89.608H8.76038V90.504C8.76038 93.464 5.80038 95.704 2.95238 96.296L2.40838 95.24C4.90438 94.824 7.64038 92.792 7.64038 90.504V89.608ZM7.88038 89.608H9.00038V90.504C9.00038 92.792 11.7524 94.776 14.2804 95.192L13.7524 96.248C10.8564 95.672 7.88038 93.464 7.88038 90.504V89.608ZM2.85638 89.096H13.7844V90.184H2.85638V89.096ZM23.9111 91.192H27.5591V92.296H23.9111V91.192ZM20.1191 88.664H21.1911V90.44C21.1911 93.24 19.6231 95.576 17.2071 96.552L16.5191 95.496C18.6631 94.696 20.1191 92.648 20.1191 90.44V88.664ZM20.3751 88.664H21.4471V90.488C21.4471 92.504 22.8551 94.408 24.9511 95.176L24.2311 96.2C21.9271 95.304 20.3751 93.064 20.3751 90.488V88.664ZM27.0631 87.8H28.3911V98.616H27.0631V87.8ZM19.0951 100.84H28.7431V101.928H19.0951V100.84ZM19.0951 97.416H20.4231V101.352H19.0951V97.416ZM31.1899 90.248H38.3579V91.336H31.1899V90.248ZM34.7739 92.296C36.5819 92.296 37.8939 93.656 37.8939 95.608C37.8939 97.544 36.5819 98.904 34.7739 98.904C32.9819 98.904 31.6699 97.544 31.6699 95.608C31.6699 93.656 32.9819 92.296 34.7739 92.296ZM34.7739 93.432C33.6699 93.432 32.8699 94.328 32.8699 95.608C32.8699 96.888 33.6699 97.784 34.7739 97.784C35.8939 97.784 36.7099 96.888 36.7099 95.608C36.7099 94.328 35.8939 93.432 34.7739 93.432ZM42.1819 87.784H43.4619V102.248H42.1819V87.784ZM39.8779 93.864H42.6139V94.968H39.8779V93.864ZM39.0939 88.104H40.3419V101.544H39.0939V88.104ZM34.1339 88.2H35.4459V90.92H34.1339V88.2ZM56.7566 89.944H59.2686V91.048H56.7566V89.944ZM56.7566 93.016H59.2686V94.12H56.7566V93.016ZM49.9726 88.632C52.1486 88.632 53.7486 90.04 53.7486 92.056C53.7486 94.056 52.1486 95.448 49.9726 95.448C47.7966 95.448 46.1966 94.056 46.1966 92.056C46.1966 90.04 47.7966 88.632 49.9726 88.632ZM49.9726 89.752C48.5326 89.752 47.4926 90.696 47.4926 92.056C47.4926 93.416 48.5326 94.344 49.9726 94.344C51.4126 94.344 52.4526 93.416 52.4526 92.056C52.4526 90.696 51.4126 89.752 49.9726 89.752ZM55.8286 87.784H57.1566V96.344H55.8286V87.784ZM52.5486 96.808C55.4926 96.808 57.3006 97.816 57.3006 99.512C57.3006 101.224 55.4926 102.216 52.5486 102.216C49.6046 102.216 47.7966 101.224 47.7966 99.512C47.7966 97.816 49.6046 96.808 52.5486 96.808ZM52.5486 97.88C50.4046 97.88 49.0926 98.472 49.0926 99.512C49.0926 100.552 50.4046 101.16 52.5486 101.16C54.6926 101.16 56.0046 100.552 56.0046 99.512C56.0046 98.472 54.6926 97.88 52.5486 97.88ZM67.1394 96.904C70.2114 96.904 72.1794 97.912 72.1794 99.576C72.1794 101.224 70.2114 102.216 67.1394 102.216C64.0514 102.216 62.0994 101.224 62.0994 99.576C62.0994 97.912 64.0514 96.904 67.1394 96.904ZM67.1394 97.944C64.8674 97.944 63.4114 98.568 63.4114 99.576C63.4114 100.568 64.8674 101.192 67.1394 101.192C69.4114 101.192 70.8514 100.568 70.8514 99.576C70.8514 98.568 69.4114 97.944 67.1394 97.944ZM62.2114 88.504H71.5234V89.592H62.2114V88.504ZM60.6594 94.52H73.7154V95.592H60.6594V94.52ZM66.0194 91.736H67.3314V94.824H66.0194V91.736ZM70.7554 88.504H72.0514V89.736C72.0514 90.904 72.0514 92.072 71.6674 93.576L70.3554 93.416C70.7554 91.928 70.7554 90.872 70.7554 89.736V88.504ZM75.4101 89.304H83.9541V90.392H75.4101V89.304ZM79.6821 91.128C81.7301 91.128 83.1381 92.152 83.1381 93.752C83.1381 95.336 81.7301 96.344 79.6821 96.344C77.6021 96.344 76.2101 95.336 76.2101 93.752C76.2101 92.152 77.6021 91.128 79.6821 91.128ZM79.6821 92.168C78.3541 92.168 77.4741 92.776 77.4741 93.752C77.4741 94.696 78.3541 95.32 79.6821 95.32C80.9781 95.32 81.8741 94.696 81.8741 93.752C81.8741 92.776 80.9781 92.168 79.6821 92.168ZM85.2661 87.784H86.5941V96.824H85.2661V87.784ZM86.2261 91.768H88.7381V92.872H86.2261V91.768ZM77.2021 97.608H86.5941V102.248H85.2661V98.696H77.2021V97.608ZM79.0101 87.704H80.3381V89.912H79.0101V87.704ZM90.0809 96.344H103.201V97.432H90.0809V96.344ZM95.9369 96.856H97.2489V102.248H95.9369V96.856ZM91.7289 88.36H93.0569V90.344H100.209V88.36H101.521V94.616H91.7289V88.36ZM93.0569 91.416V93.544H100.209V91.416H93.0569Z" fill="#D0D0D0"/>
<defs>
<clipPath id="clip0_167_144933">
<rect width="105" height="66" fill="white"/>
</clipPath>
</defs>
</svg>
