<svg width="2125" height="958" viewBox="0 0 2125 958" fill="none" xmlns="http://www.w3.org/2000/svg">
<g filter="url(#filter0_d_189_166)">
<g style="mix-blend-mode:hard-light" filter="url(#filter1_f_189_166)">
<path d="M1593.08 442.522V553.152V608.467L1526.7 663.783H1460.32H1327.57H1062.05H796.539H730.161L531.026 442.522V331.891V276.576L597.404 221.261H663.783H796.539H1062.05H1327.57H1401.12" stroke="#00A8A8" stroke-width="3.25"/>
</g>
<g style="mix-blend-mode:hard-light" filter="url(#filter2_f_189_166)">
<path d="M1593.08 442.522V553.152V608.467L1526.7 663.783H1460.32H1327.57H1062.05H796.539H730.161L531.026 442.522V331.891V276.576L597.404 221.261H663.783H796.539H1062.05H1327.57H1401.12" stroke="#00A8A8" stroke-width="4.25"/>
</g>
<g style="mix-blend-mode:hard-light" filter="url(#filter3_ddi_189_166)">
<path d="M1593.08 442.522V553.152V608.467L1526.7 663.783H1460.32H1327.57H1062.05H796.539H730.161L531.026 442.522V331.891V276.576L597.404 221.261H663.783H796.539H1062.05H1327.57H1401.12" stroke="#33E9C6" stroke-opacity="0.2" stroke-width="3.25"/>
</g>
<g filter="url(#filter4_f_189_166)">
<path d="M1593.08 442.522V553.152V608.467L1526.7 663.783H1460.32H1327.57H1062.05H796.539H730.161L531.026 442.522V331.891V276.576L597.404 221.261H663.783H796.539H1062.05H1327.57H1401.12" stroke="#33E9E9" stroke-width="2"/>
</g>
<g filter="url(#filter5_f_189_166)">
<path d="M1593.08 442.522V553.152V608.467L1526.7 663.783H1460.32H1327.57H1062.05H796.539H730.161L531.026 442.522V331.891V276.576L597.404 221.261H663.783H796.539H1062.05H1327.57H1401.12" stroke="white"/>
</g>
</g>
<g style="mix-blend-mode:hard-light" filter="url(#filter6_f_189_166)">
<path d="M1367.1 693.752C1367.1 697.988 1370.54 701.42 1374.77 701.418C1379.01 701.416 1382.44 697.98 1382.44 693.744C1382.44 689.508 1379 686.075 1374.76 686.077C1370.53 686.08 1367.1 689.516 1367.1 693.752ZM1547.98 693.658L1547.98 695.096L1548.51 695.096L1548.91 694.755L1547.98 693.658ZM1621.91 630.977L1622.84 632.074L1623.35 631.643L1623.35 630.976L1621.91 630.977ZM1374.77 695.186L1547.98 695.096L1547.98 692.22L1374.77 692.31L1374.77 695.186ZM1548.91 694.755L1622.84 632.074L1620.98 629.88L1547.05 692.561L1548.91 694.755ZM1623.35 630.976L1623.26 461.915L1620.39 461.917L1620.47 630.978L1623.35 630.976Z" fill="#00A8A8"/>
</g>
<g style="mix-blend-mode:hard-light" filter="url(#filter7_f_189_166)">
<path d="M1364.74 693.753C1364.74 699.293 1369.23 703.781 1374.77 703.778C1380.31 703.775 1384.8 699.282 1384.8 693.743C1384.8 688.203 1380.3 683.714 1374.76 683.717C1369.22 683.72 1364.74 688.213 1364.74 693.753ZM1547.98 693.658L1547.98 695.539L1548.67 695.539L1549.2 695.093L1547.98 693.658ZM1621.91 630.977L1623.13 632.411L1623.79 631.848L1623.79 630.976L1621.91 630.977ZM1374.77 695.629L1547.98 695.539L1547.98 691.777L1374.77 691.867L1374.77 695.629ZM1549.2 695.093L1623.13 632.411L1620.7 629.542L1546.76 692.224L1549.2 695.093ZM1623.79 630.976L1623.71 461.915L1619.94 461.917L1620.03 630.978L1623.79 630.976Z" fill="#00A8A8"/>
</g>
<g style="mix-blend-mode:hard-light" filter="url(#filter8_ddi_189_166)">
<path d="M1367.1 693.752C1367.1 697.988 1370.54 701.42 1374.77 701.418C1379.01 701.416 1382.44 697.98 1382.44 693.744C1382.44 689.508 1379 686.075 1374.76 686.077C1370.53 686.08 1367.1 689.516 1367.1 693.752ZM1547.98 693.658L1547.98 695.096L1548.51 695.096L1548.91 694.755L1547.98 693.658ZM1621.91 630.977L1622.84 632.074L1623.35 631.643L1623.35 630.976L1621.91 630.977ZM1374.77 695.186L1547.98 695.096L1547.98 692.22L1374.77 692.31L1374.77 695.186ZM1548.91 694.755L1622.84 632.074L1620.98 629.88L1547.05 692.561L1548.91 694.755ZM1623.35 630.976L1623.26 461.915L1620.39 461.917L1620.47 630.978L1623.35 630.976Z" fill="#33E9C6" fill-opacity="0.2"/>
</g>
<g filter="url(#filter9_f_189_166)">
<path d="M1370.05 693.75C1370.05 696.357 1372.16 698.469 1374.77 698.468C1377.38 698.467 1379.49 696.352 1379.49 693.745C1379.49 691.138 1377.37 689.026 1374.77 689.028C1372.16 689.029 1370.05 691.143 1370.05 693.75ZM1547.98 693.658L1547.98 694.543L1548.31 694.543L1548.55 694.333L1547.98 693.658ZM1621.91 630.977L1622.48 631.652L1622.8 631.387L1622.8 630.976L1621.91 630.977ZM1374.77 694.633L1547.98 694.543L1547.98 692.773L1374.77 692.863L1374.77 694.633ZM1548.55 694.333L1622.48 631.652L1621.34 630.302L1547.41 692.983L1548.55 694.333ZM1622.8 630.976L1622.71 461.916L1620.94 461.916L1621.03 630.977L1622.8 630.976Z" fill="#33E9E9"/>
</g>
<g filter="url(#filter10_f_189_166)">
<path d="M1372.41 693.749C1372.41 695.052 1373.47 696.109 1374.77 696.108C1376.07 696.107 1377.13 695.05 1377.13 693.747C1377.13 692.443 1376.07 691.387 1374.77 691.388C1373.46 691.388 1372.41 692.446 1372.41 693.749ZM1547.98 693.658L1547.98 694.101L1548.14 694.101L1548.27 693.996L1547.98 693.658ZM1621.91 630.977L1622.2 631.314L1622.35 631.182L1622.35 630.977L1621.91 630.977ZM1374.77 694.19L1547.98 694.101L1547.98 693.216L1374.77 693.305L1374.77 694.19ZM1548.27 693.996L1622.2 631.314L1621.63 630.639L1547.69 693.321L1548.27 693.996ZM1622.35 630.977L1622.27 461.916L1621.38 461.916L1621.47 630.977L1622.35 630.977Z" fill="white"/>
</g>
<g filter="url(#filter11_f_189_166)">
<path d="M1372.41 693.749C1372.41 695.052 1373.47 696.109 1374.77 696.108C1376.07 696.107 1377.13 695.05 1377.13 693.747C1377.13 692.443 1376.07 691.387 1374.77 691.388C1373.46 691.388 1372.41 692.446 1372.41 693.749ZM1547.98 693.658L1547.98 694.101L1548.14 694.101L1548.27 693.996L1547.98 693.658ZM1621.91 630.977L1622.2 631.314L1622.35 631.182L1622.35 630.977L1621.91 630.977ZM1374.77 694.19L1547.98 694.101L1547.98 693.216L1374.77 693.305L1374.77 694.19ZM1548.27 693.996L1622.2 631.314L1621.63 630.639L1547.69 693.321L1548.27 693.996ZM1622.35 630.977L1622.27 461.916L1621.38 461.916L1621.47 630.977L1622.35 630.977Z" fill="white"/>
</g>
<g style="mix-blend-mode:hard-light" filter="url(#filter12_f_189_166)">
<path d="M756.846 196.996C756.844 192.76 753.408 189.327 749.172 189.33C744.936 189.332 741.503 192.768 741.506 197.004C741.508 201.24 744.944 204.673 749.18 204.67C753.416 204.668 756.849 201.232 756.846 196.996ZM575.964 197.09L575.963 195.651L575.436 195.652L575.034 195.993L575.964 197.09ZM502.032 259.771L501.102 258.674L500.594 259.105L500.594 259.772L502.032 259.771ZM749.175 195.562L575.963 195.651L575.965 198.528L749.177 198.438L749.175 195.562ZM575.034 195.993L501.102 258.674L502.963 260.868L576.894 198.187L575.034 195.993ZM500.594 259.772L500.682 428.833L503.558 428.831L503.471 259.77L500.594 259.772Z" fill="#00A8A8"/>
</g>
<g style="mix-blend-mode:hard-light" filter="url(#filter13_f_189_166)">
<path d="M759.206 196.995C759.204 191.455 754.71 186.967 749.171 186.97C743.631 186.972 739.143 191.466 739.145 197.005C739.148 202.545 743.641 207.033 749.181 207.03C754.721 207.028 759.209 202.535 759.206 196.995ZM575.964 197.09L575.963 195.209L575.274 195.209L574.748 195.655L575.964 197.09ZM502.032 259.771L500.816 258.336L500.151 258.9L500.152 259.772L502.032 259.771ZM749.175 195.119L575.963 195.209L575.965 198.97L749.177 198.881L749.175 195.119ZM574.748 195.655L500.816 258.336L503.249 261.206L577.18 198.524L574.748 195.655ZM500.152 259.772L500.239 428.833L504.001 428.831L503.913 259.77L500.152 259.772Z" fill="#00A8A8"/>
</g>
<g style="mix-blend-mode:hard-light" filter="url(#filter14_ddi_189_166)">
<path d="M756.846 196.996C756.844 192.76 753.408 189.327 749.172 189.33C744.936 189.332 741.503 192.768 741.506 197.004C741.508 201.24 744.944 204.673 749.18 204.67C753.416 204.668 756.849 201.232 756.846 196.996ZM575.964 197.09L575.963 195.651L575.436 195.652L575.034 195.993L575.964 197.09ZM502.032 259.771L501.102 258.674L500.594 259.105L500.594 259.772L502.032 259.771ZM749.175 195.562L575.963 195.651L575.965 198.528L749.177 198.438L749.175 195.562ZM575.034 195.993L501.102 258.674L502.963 260.868L576.894 198.187L575.034 195.993ZM500.594 259.772L500.682 428.833L503.558 428.831L503.471 259.77L500.594 259.772Z" fill="#33E9C6" fill-opacity="0.2"/>
</g>
<g filter="url(#filter15_f_189_166)">
<path d="M753.896 196.998C753.895 194.391 751.78 192.278 749.174 192.28C746.567 192.281 744.454 194.396 744.456 197.002C744.457 199.609 746.571 201.722 749.178 201.72C751.785 201.719 753.898 199.604 753.896 196.998ZM575.964 197.09L575.964 196.205L575.639 196.205L575.392 196.415L575.964 197.09ZM502.032 259.771L501.46 259.096L501.147 259.361L501.147 259.771L502.032 259.771ZM749.176 196.115L575.964 196.205L575.965 197.975L749.176 197.885L749.176 196.115ZM575.392 196.415L501.46 259.096L502.605 260.446L576.536 197.765L575.392 196.415ZM501.147 259.771L501.235 428.832L503.005 428.831L502.918 259.771L501.147 259.771Z" fill="#33E9E9"/>
</g>
<g filter="url(#filter16_f_189_166)">
<path d="M751.536 196.999C751.535 195.695 750.478 194.639 749.175 194.64C747.871 194.641 746.815 195.698 746.816 197.001C746.817 198.305 747.874 199.361 749.177 199.36C750.481 199.359 751.537 198.302 751.536 196.999ZM575.964 197.09L575.964 196.647L575.802 196.647L575.678 196.752L575.964 197.09ZM502.032 259.771L501.746 259.433L501.59 259.566L501.59 259.771L502.032 259.771ZM749.176 196.557L575.964 196.647L575.964 197.532L749.176 197.443L749.176 196.557ZM575.678 196.752L501.746 259.433L502.319 260.109L576.25 197.427L575.678 196.752ZM501.59 259.771L501.677 428.832L502.563 428.832L502.475 259.771L501.59 259.771Z" fill="white"/>
</g>
<g filter="url(#filter17_f_189_166)">
<path d="M751.536 196.999C751.535 195.695 750.478 194.639 749.175 194.64C747.871 194.641 746.815 195.698 746.816 197.001C746.817 198.305 747.874 199.361 749.177 199.36C750.481 199.359 751.537 198.302 751.536 196.999ZM575.964 197.09L575.964 196.647L575.802 196.647L575.678 196.752L575.964 197.09ZM502.032 259.771L501.746 259.433L501.59 259.566L501.59 259.771L502.032 259.771ZM749.176 196.557L575.964 196.647L575.964 197.532L749.176 197.443L749.176 196.557ZM575.678 196.752L501.746 259.433L502.319 260.109L576.25 197.427L575.678 196.752ZM501.59 259.771L501.677 428.832L502.563 428.832L502.475 259.771L501.59 259.771Z" fill="white"/>
</g>
<g style="mix-blend-mode:hard-light" filter="url(#filter18_f_189_166)">
<path d="M512.766 644.163L515.861 567.094C516.212 558.352 526.889 554.317 532.934 560.643L606.969 638.112C613.013 644.437 608.499 654.92 599.75 654.875L522.621 654.474C517.01 654.445 512.541 649.769 512.766 644.163Z" stroke="#00A8A8" stroke-width="4.08486"/>
</g>
<g style="mix-blend-mode:hard-light" filter="url(#filter19_f_189_166)">
<path d="M513.394 644.188L516.489 567.119C516.818 558.932 526.818 555.153 532.48 561.077L606.514 638.546C612.176 644.47 607.948 654.289 599.753 654.247L522.624 653.846C517.369 653.818 513.184 649.439 513.394 644.188Z" stroke="#00A8A8" stroke-width="5.34174"/>
</g>
<g style="mix-blend-mode:hard-light" filter="url(#filter20_ddi_189_166)">
<path d="M512.766 644.163L515.861 567.094C516.212 558.352 526.889 554.317 532.934 560.643L606.969 638.112C613.013 644.437 608.499 654.92 599.75 654.875L522.621 654.474C517.01 654.445 512.541 649.769 512.766 644.163Z" stroke="#33E9C6" stroke-opacity="0.2" stroke-width="4.08486"/>
</g>
<g filter="url(#filter21_f_189_166)">
<path d="M511.982 644.131L515.076 567.063C515.455 557.628 526.978 553.274 533.502 560.1L607.537 637.569C614.06 644.395 609.188 655.71 599.746 655.661L522.617 655.259C516.561 655.228 511.739 650.182 511.982 644.131Z" stroke="#33E9E9" stroke-width="2.51376"/>
</g>
<g filter="url(#filter22_f_189_166)">
<path d="M511.354 644.106L514.448 567.038C514.849 557.049 527.049 552.438 533.956 559.666L607.991 637.135C614.898 644.362 609.739 656.341 599.743 656.289L522.613 655.888C516.202 655.855 511.096 650.512 511.354 644.106Z" stroke="white" stroke-width="1.25688"/>
</g>
<g style="mix-blend-mode:hard-light" filter="url(#filter23_f_189_166)">
<path d="M492.142 659.24L497.06 536.768C497.618 522.88 514.581 516.47 524.184 526.518L641.835 649.627C651.438 659.676 644.266 676.331 630.367 676.259L507.798 675.622C498.884 675.575 491.785 668.147 492.142 659.24Z" stroke="#00A8A8" stroke-width="6.5"/>
</g>
<g style="mix-blend-mode:hard-light" filter="url(#filter24_f_189_166)">
<path d="M493.141 659.28L498.059 536.808C498.582 523.802 514.468 517.799 523.461 527.209L641.112 650.318C650.105 659.729 643.389 675.326 630.372 675.259L507.803 674.622C499.455 674.578 492.807 667.621 493.141 659.28Z" stroke="#00A8A8" stroke-width="8.5"/>
</g>
<g style="mix-blend-mode:hard-light" filter="url(#filter25_ddi_189_166)">
<path d="M492.142 659.24L497.06 536.768C497.618 522.88 514.581 516.47 524.184 526.518L641.835 649.627C651.438 659.676 644.266 676.331 630.367 676.259L507.798 675.622C498.884 675.575 491.785 668.147 492.142 659.24Z" stroke="#33E9C6" stroke-opacity="0.2" stroke-width="6.5"/>
</g>
<g filter="url(#filter26_f_189_166)">
<path d="M490.893 659.19L495.811 536.718C496.413 521.727 514.722 514.808 525.088 525.655L642.739 648.764C653.104 659.61 645.363 677.587 630.36 677.509L507.791 676.872C498.17 676.821 490.507 668.804 490.893 659.19Z" stroke="#33E9E9" stroke-width="4"/>
</g>
<g filter="url(#filter27_f_189_166)">
<path d="M489.894 659.15L494.812 536.678C495.449 520.805 514.836 513.48 525.811 524.964L643.462 648.073C654.437 659.557 646.24 678.591 630.355 678.509L507.786 677.871C497.599 677.819 489.485 669.329 489.894 659.15Z" stroke="white" stroke-width="2"/>
</g>
<g style="mix-blend-mode:hard-light" filter="url(#filter28_f_189_166)">
<ellipse cx="1517.82" cy="310.541" rx="20.2949" ry="56.7246" fill="#33E9C6" fill-opacity="0.1"/>
</g>
<g style="mix-blend-mode:hard-light" filter="url(#filter29_f_189_166)">
<path d="M1534.67 302.23L1517.78 263.271L1500.91 302.23M1500.97 302.229L1509.41 357.812H1526.3L1534.74 302.229" stroke="#00A8A8" stroke-width="3.25"/>
</g>
<g style="mix-blend-mode:hard-light" filter="url(#filter30_f_189_166)">
<path d="M1534.67 302.23L1517.78 263.271L1500.91 302.23M1500.97 302.229L1509.41 357.812H1526.3L1534.74 302.229" stroke="#00A8A8" stroke-width="4.25"/>
</g>
<g style="mix-blend-mode:hard-light" filter="url(#filter31_ddi_189_166)">
<path d="M1534.67 302.23L1517.78 263.271L1500.91 302.23M1500.97 302.229L1509.41 357.812H1526.3L1534.74 302.229" stroke="#33E9C6" stroke-opacity="0.2" stroke-width="3.25"/>
</g>
<g filter="url(#filter32_f_189_166)">
<path d="M1534.67 302.23L1517.78 263.271L1500.91 302.23M1500.97 302.229L1509.41 357.812H1526.3L1534.74 302.229" stroke="#33E9E9" stroke-width="2"/>
</g>
<g filter="url(#filter33_f_189_166)">
<path d="M1534.67 302.23L1517.78 263.271L1500.91 302.23M1500.97 302.229L1509.41 357.812H1526.3L1534.74 302.229" stroke="white"/>
</g>
<circle cx="1517.5" cy="311.5" r="2.5" fill="white"/>
<defs>
<filter id="filter0_d_189_166" x="508.901" y="203.136" width="1106.3" height="486.772" filterUnits="userSpaceOnUse" color-interpolation-filters="sRGB">
<feFlood flood-opacity="0" result="BackgroundImageFix"/>
<feColorMatrix in="SourceAlpha" type="matrix" values="0 0 0 0 0 0 0 0 0 0 0 0 0 0 0 0 0 0 127 0" result="hardAlpha"/>
<feOffset dy="4"/>
<feGaussianBlur stdDeviation="10"/>
<feComposite in2="hardAlpha" operator="out"/>
<feColorMatrix type="matrix" values="0 0 0 0 0.240299 0 0 0 0 0.953146 0 0 0 0 1 0 0 0 0.75 0"/>
<feBlend mode="normal" in2="BackgroundImageFix" result="effect1_dropShadow_189_166"/>
<feBlend mode="normal" in="SourceGraphic" in2="effect1_dropShadow_189_166" result="shape"/>
</filter>
<filter id="filter1_f_189_166" x="521.826" y="212.061" width="1080.45" height="460.922" filterUnits="userSpaceOnUse" color-interpolation-filters="sRGB">
<feFlood flood-opacity="0" result="BackgroundImageFix"/>
<feBlend mode="normal" in="SourceGraphic" in2="BackgroundImageFix" result="shape"/>
<feGaussianBlur stdDeviation="3.7875" result="effect1_foregroundBlur_189_166"/>
</filter>
<filter id="filter2_f_189_166" x="526.376" y="216.611" width="1071.35" height="451.822" filterUnits="userSpaceOnUse" color-interpolation-filters="sRGB">
<feFlood flood-opacity="0" result="BackgroundImageFix"/>
<feBlend mode="normal" in="SourceGraphic" in2="BackgroundImageFix" result="shape"/>
<feGaussianBlur stdDeviation="1.2625" result="effect1_foregroundBlur_189_166"/>
</filter>
<filter id="filter3_ddi_189_166" x="526.119" y="218.878" width="1071.87" height="452.337" filterUnits="userSpaceOnUse" color-interpolation-filters="sRGB">
<feFlood flood-opacity="0" result="BackgroundImageFix"/>
<feColorMatrix in="SourceAlpha" type="matrix" values="0 0 0 0 0 0 0 0 0 0 0 0 0 0 0 0 0 0 127 0" result="hardAlpha"/>
<feOffset dy="3.25"/>
<feGaussianBlur stdDeviation="1.25"/>
<feColorMatrix type="matrix" values="0 0 0 0 0 0 0 0 0 0.3 0 0 0 0 0.275 0 0 0 0.7 0"/>
<feBlend mode="multiply" in2="BackgroundImageFix" result="effect1_dropShadow_189_166"/>
<feColorMatrix in="SourceAlpha" type="matrix" values="0 0 0 0 0 0 0 0 0 0 0 0 0 0 0 0 0 0 127 0" result="hardAlpha"/>
<feOffset dy="2.525"/>
<feGaussianBlur stdDeviation="1.64125"/>
<feColorMatrix type="matrix" values="0 0 0 0 0 0 0 0 0 0.6 0 0 0 0 0.6 0 0 0 1 0"/>
<feBlend mode="color-dodge" in2="effect1_dropShadow_189_166" result="effect2_dropShadow_189_166"/>
<feBlend mode="normal" in="SourceGraphic" in2="effect2_dropShadow_189_166" result="shape"/>
<feColorMatrix in="SourceAlpha" type="matrix" values="0 0 0 0 0 0 0 0 0 0 0 0 0 0 0 0 0 0 127 0" result="hardAlpha"/>
<feOffset dx="-0.325" dy="0.65"/>
<feGaussianBlur stdDeviation="0.1625"/>
<feComposite in2="hardAlpha" operator="arithmetic" k2="-1" k3="1"/>
<feColorMatrix type="matrix" values="0 0 0 0 1 0 0 0 0 1 0 0 0 0 1 0 0 0 0.5 0"/>
<feBlend mode="normal" in2="shape" result="effect3_innerShadow_189_166"/>
</filter>
<filter id="filter4_f_189_166" x="529.526" y="219.761" width="1065.05" height="445.522" filterUnits="userSpaceOnUse" color-interpolation-filters="sRGB">
<feFlood flood-opacity="0" result="BackgroundImageFix"/>
<feBlend mode="normal" in="SourceGraphic" in2="BackgroundImageFix" result="shape"/>
<feGaussianBlur stdDeviation="0.25" result="effect1_foregroundBlur_189_166"/>
</filter>
<filter id="filter5_f_189_166" x="530.193" y="220.428" width="1063.72" height="444.189" filterUnits="userSpaceOnUse" color-interpolation-filters="sRGB">
<feFlood flood-opacity="0" result="BackgroundImageFix"/>
<feBlend mode="normal" in="SourceGraphic" in2="BackgroundImageFix" result="shape"/>
<feGaussianBlur stdDeviation="0.166667" result="effect1_foregroundBlur_189_166"/>
</filter>
<filter id="filter6_f_189_166" x="1360.39" y="455.211" width="269.661" height="252.911" filterUnits="userSpaceOnUse" color-interpolation-filters="sRGB">
<feFlood flood-opacity="0" result="BackgroundImageFix"/>
<feBlend mode="normal" in="SourceGraphic" in2="BackgroundImageFix" result="shape"/>
<feGaussianBlur stdDeviation="3.3521" result="effect1_foregroundBlur_189_166"/>
</filter>
<filter id="filter7_f_189_166" x="1362.5" y="459.68" width="263.525" height="246.333" filterUnits="userSpaceOnUse" color-interpolation-filters="sRGB">
<feFlood flood-opacity="0" result="BackgroundImageFix"/>
<feBlend mode="normal" in="SourceGraphic" in2="BackgroundImageFix" result="shape"/>
<feGaussianBlur stdDeviation="1.11737" result="effect1_foregroundBlur_189_166"/>
</filter>
<filter id="filter8_ddi_189_166" x="1364.19" y="461.245" width="262.063" height="245.313" filterUnits="userSpaceOnUse" color-interpolation-filters="sRGB">
<feFlood flood-opacity="0" result="BackgroundImageFix"/>
<feColorMatrix in="SourceAlpha" type="matrix" values="0 0 0 0 0 0 0 0 0 0 0 0 0 0 0 0 0 0 127 0" result="hardAlpha"/>
<feOffset dy="2.87639"/>
<feGaussianBlur stdDeviation="1.1063"/>
<feColorMatrix type="matrix" values="0 0 0 0 0 0 0 0 0 0.3 0 0 0 0 0.275 0 0 0 0.7 0"/>
<feBlend mode="multiply" in2="BackgroundImageFix" result="effect1_dropShadow_189_166"/>
<feColorMatrix in="SourceAlpha" type="matrix" values="0 0 0 0 0 0 0 0 0 0 0 0 0 0 0 0 0 0 127 0" result="hardAlpha"/>
<feOffset dy="2.23474"/>
<feGaussianBlur stdDeviation="1.45258"/>
<feColorMatrix type="matrix" values="0 0 0 0 0 0 0 0 0 0.6 0 0 0 0 0.6 0 0 0 1 0"/>
<feBlend mode="color-dodge" in2="effect1_dropShadow_189_166" result="effect2_dropShadow_189_166"/>
<feBlend mode="normal" in="SourceGraphic" in2="effect2_dropShadow_189_166" result="shape"/>
<feColorMatrix in="SourceAlpha" type="matrix" values="0 0 0 0 0 0 0 0 0 0 0 0 0 0 0 0 0 0 127 0" result="hardAlpha"/>
<feOffset dx="-0.287639" dy="0.575278"/>
<feGaussianBlur stdDeviation="0.14382"/>
<feComposite in2="hardAlpha" operator="arithmetic" k2="-1" k3="1"/>
<feColorMatrix type="matrix" values="0 0 0 0 1 0 0 0 0 1 0 0 0 0 1 0 0 0 0.5 0"/>
<feBlend mode="normal" in2="shape" result="effect3_innerShadow_189_166"/>
</filter>
<filter id="filter9_f_189_166" x="1369.61" y="461.473" width="253.634" height="237.438" filterUnits="userSpaceOnUse" color-interpolation-filters="sRGB">
<feFlood flood-opacity="0" result="BackgroundImageFix"/>
<feBlend mode="normal" in="SourceGraphic" in2="BackgroundImageFix" result="shape"/>
<feGaussianBlur stdDeviation="0.221261" result="effect1_foregroundBlur_189_166"/>
</filter>
<filter id="filter10_f_189_166" x="1372.11" y="461.621" width="250.536" height="234.782" filterUnits="userSpaceOnUse" color-interpolation-filters="sRGB">
<feFlood flood-opacity="0" result="BackgroundImageFix"/>
<feBlend mode="normal" in="SourceGraphic" in2="BackgroundImageFix" result="shape"/>
<feGaussianBlur stdDeviation="0.147507" result="effect1_foregroundBlur_189_166"/>
</filter>
<filter id="filter11_f_189_166" x="1372.11" y="461.621" width="250.536" height="234.782" filterUnits="userSpaceOnUse" color-interpolation-filters="sRGB">
<feFlood flood-opacity="0" result="BackgroundImageFix"/>
<feBlend mode="normal" in="SourceGraphic" in2="BackgroundImageFix" result="shape"/>
<feGaussianBlur stdDeviation="0.147507" result="effect1_foregroundBlur_189_166"/>
</filter>
<filter id="filter12_f_189_166" x="493.89" y="182.625" width="269.661" height="252.911" filterUnits="userSpaceOnUse" color-interpolation-filters="sRGB">
<feFlood flood-opacity="0" result="BackgroundImageFix"/>
<feBlend mode="normal" in="SourceGraphic" in2="BackgroundImageFix" result="shape"/>
<feGaussianBlur stdDeviation="3.3521" result="effect1_foregroundBlur_189_166"/>
</filter>
<filter id="filter13_f_189_166" x="497.917" y="184.735" width="263.525" height="246.333" filterUnits="userSpaceOnUse" color-interpolation-filters="sRGB">
<feFlood flood-opacity="0" result="BackgroundImageFix"/>
<feBlend mode="normal" in="SourceGraphic" in2="BackgroundImageFix" result="shape"/>
<feGaussianBlur stdDeviation="1.11737" result="effect1_foregroundBlur_189_166"/>
</filter>
<filter id="filter14_ddi_189_166" x="497.689" y="188.659" width="262.063" height="245.313" filterUnits="userSpaceOnUse" color-interpolation-filters="sRGB">
<feFlood flood-opacity="0" result="BackgroundImageFix"/>
<feColorMatrix in="SourceAlpha" type="matrix" values="0 0 0 0 0 0 0 0 0 0 0 0 0 0 0 0 0 0 127 0" result="hardAlpha"/>
<feOffset dy="2.87639"/>
<feGaussianBlur stdDeviation="1.1063"/>
<feColorMatrix type="matrix" values="0 0 0 0 0 0 0 0 0 0.3 0 0 0 0 0.275 0 0 0 0.7 0"/>
<feBlend mode="multiply" in2="BackgroundImageFix" result="effect1_dropShadow_189_166"/>
<feColorMatrix in="SourceAlpha" type="matrix" values="0 0 0 0 0 0 0 0 0 0 0 0 0 0 0 0 0 0 127 0" result="hardAlpha"/>
<feOffset dy="2.23474"/>
<feGaussianBlur stdDeviation="1.45258"/>
<feColorMatrix type="matrix" values="0 0 0 0 0 0 0 0 0 0.6 0 0 0 0 0.6 0 0 0 1 0"/>
<feBlend mode="color-dodge" in2="effect1_dropShadow_189_166" result="effect2_dropShadow_189_166"/>
<feBlend mode="normal" in="SourceGraphic" in2="effect2_dropShadow_189_166" result="shape"/>
<feColorMatrix in="SourceAlpha" type="matrix" values="0 0 0 0 0 0 0 0 0 0 0 0 0 0 0 0 0 0 127 0" result="hardAlpha"/>
<feOffset dx="-0.287639" dy="0.575278"/>
<feGaussianBlur stdDeviation="0.14382"/>
<feComposite in2="hardAlpha" operator="arithmetic" k2="-1" k3="1"/>
<feColorMatrix type="matrix" values="0 0 0 0 1 0 0 0 0 1 0 0 0 0 1 0 0 0 0.5 0"/>
<feBlend mode="normal" in2="shape" result="effect3_innerShadow_189_166"/>
</filter>
<filter id="filter15_f_189_166" x="500.705" y="191.837" width="253.634" height="237.438" filterUnits="userSpaceOnUse" color-interpolation-filters="sRGB">
<feFlood flood-opacity="0" result="BackgroundImageFix"/>
<feBlend mode="normal" in="SourceGraphic" in2="BackgroundImageFix" result="shape"/>
<feGaussianBlur stdDeviation="0.221261" result="effect1_foregroundBlur_189_166"/>
</filter>
<filter id="filter16_f_189_166" x="501.295" y="194.345" width="250.536" height="234.782" filterUnits="userSpaceOnUse" color-interpolation-filters="sRGB">
<feFlood flood-opacity="0" result="BackgroundImageFix"/>
<feBlend mode="normal" in="SourceGraphic" in2="BackgroundImageFix" result="shape"/>
<feGaussianBlur stdDeviation="0.147507" result="effect1_foregroundBlur_189_166"/>
</filter>
<filter id="filter17_f_189_166" x="501.295" y="194.345" width="250.536" height="234.782" filterUnits="userSpaceOnUse" color-interpolation-filters="sRGB">
<feFlood flood-opacity="0" result="BackgroundImageFix"/>
<feBlend mode="normal" in="SourceGraphic" in2="BackgroundImageFix" result="shape"/>
<feGaussianBlur stdDeviation="0.147507" result="effect1_foregroundBlur_189_166"/>
</filter>
<filter id="filter18_f_189_166" x="501.195" y="545.994" width="120.108" height="120.444" filterUnits="userSpaceOnUse" color-interpolation-filters="sRGB">
<feFlood flood-opacity="0" result="BackgroundImageFix"/>
<feBlend mode="normal" in="SourceGraphic" in2="BackgroundImageFix" result="shape"/>
<feGaussianBlur stdDeviation="4.76043" result="effect1_foregroundBlur_189_166"/>
</filter>
<filter id="filter19_f_189_166" x="507.542" y="552.342" width="107.414" height="107.75" filterUnits="userSpaceOnUse" color-interpolation-filters="sRGB">
<feFlood flood-opacity="0" result="BackgroundImageFix"/>
<feBlend mode="normal" in="SourceGraphic" in2="BackgroundImageFix" result="shape"/>
<feGaussianBlur stdDeviation="1.58681" result="effect1_foregroundBlur_189_166"/>
</filter>
<filter id="filter20_ddi_189_166" x="506.59" y="554.563" width="109.318" height="109.654" filterUnits="userSpaceOnUse" color-interpolation-filters="sRGB">
<feFlood flood-opacity="0" result="BackgroundImageFix"/>
<feColorMatrix in="SourceAlpha" type="matrix" values="0 0 0 0 0 0 0 0 0 0 0 0 0 0 0 0 0 0 127 0" result="hardAlpha"/>
<feOffset dy="4.08486"/>
<feGaussianBlur stdDeviation="1.5711"/>
<feColorMatrix type="matrix" values="0 0 0 0 0 0 0 0 0 0.3 0 0 0 0 0.275 0 0 0 0.7 0"/>
<feBlend mode="multiply" in2="BackgroundImageFix" result="effect1_dropShadow_189_166"/>
<feColorMatrix in="SourceAlpha" type="matrix" values="0 0 0 0 0 0 0 0 0 0 0 0 0 0 0 0 0 0 127 0" result="hardAlpha"/>
<feOffset dy="3.17362"/>
<feGaussianBlur stdDeviation="2.06285"/>
<feColorMatrix type="matrix" values="0 0 0 0 0 0 0 0 0 0.6 0 0 0 0 0.6 0 0 0 1 0"/>
<feBlend mode="color-dodge" in2="effect1_dropShadow_189_166" result="effect2_dropShadow_189_166"/>
<feBlend mode="normal" in="SourceGraphic" in2="effect2_dropShadow_189_166" result="shape"/>
<feColorMatrix in="SourceAlpha" type="matrix" values="0 0 0 0 0 0 0 0 0 0 0 0 0 0 0 0 0 0 127 0" result="hardAlpha"/>
<feOffset dx="-0.408486" dy="0.816972"/>
<feGaussianBlur stdDeviation="0.204243"/>
<feComposite in2="hardAlpha" operator="arithmetic" k2="-1" k3="1"/>
<feColorMatrix type="matrix" values="0 0 0 0 1 0 0 0 0 1 0 0 0 0 1 0 0 0 0.5 0"/>
<feBlend mode="normal" in2="shape" result="effect3_innerShadow_189_166"/>
</filter>
<filter id="filter21_f_189_166" x="510.087" y="554.887" width="102.323" height="102.659" filterUnits="userSpaceOnUse" color-interpolation-filters="sRGB">
<feFlood flood-opacity="0" result="BackgroundImageFix"/>
<feBlend mode="normal" in="SourceGraphic" in2="BackgroundImageFix" result="shape"/>
<feGaussianBlur stdDeviation="0.31422" result="effect1_foregroundBlur_189_166"/>
</filter>
<filter id="filter22_f_189_166" x="510.297" y="555.096" width="101.904" height="102.24" filterUnits="userSpaceOnUse" color-interpolation-filters="sRGB">
<feFlood flood-opacity="0" result="BackgroundImageFix"/>
<feBlend mode="normal" in="SourceGraphic" in2="BackgroundImageFix" result="shape"/>
<feGaussianBlur stdDeviation="0.20948" result="effect1_foregroundBlur_189_166"/>
</filter>
<filter id="filter23_f_189_166" x="458.879" y="488.367" width="220.608" height="221.142" filterUnits="userSpaceOnUse" color-interpolation-filters="sRGB">
<feFlood flood-opacity="0" result="BackgroundImageFix"/>
<feBlend mode="normal" in="SourceGraphic" in2="BackgroundImageFix" result="shape"/>
<feGaussianBlur stdDeviation="15" result="effect1_foregroundBlur_189_166"/>
</filter>
<filter id="filter24_f_189_166" x="478.879" y="508.367" width="180.608" height="181.142" filterUnits="userSpaceOnUse" color-interpolation-filters="sRGB">
<feFlood flood-opacity="0" result="BackgroundImageFix"/>
<feBlend mode="normal" in="SourceGraphic" in2="BackgroundImageFix" result="shape"/>
<feGaussianBlur stdDeviation="5" result="effect1_foregroundBlur_189_166"/>
</filter>
<filter id="filter25_ddi_189_166" x="475.879" y="515.367" width="186.608" height="187.142" filterUnits="userSpaceOnUse" color-interpolation-filters="sRGB">
<feFlood flood-opacity="0" result="BackgroundImageFix"/>
<feColorMatrix in="SourceAlpha" type="matrix" values="0 0 0 0 0 0 0 0 0 0 0 0 0 0 0 0 0 0 127 0" result="hardAlpha"/>
<feOffset dy="6.5"/>
<feGaussianBlur stdDeviation="2.5"/>
<feColorMatrix type="matrix" values="0 0 0 0 0 0 0 0 0 0.3 0 0 0 0 0.275 0 0 0 0.7 0"/>
<feBlend mode="multiply" in2="BackgroundImageFix" result="effect1_dropShadow_189_166"/>
<feColorMatrix in="SourceAlpha" type="matrix" values="0 0 0 0 0 0 0 0 0 0 0 0 0 0 0 0 0 0 127 0" result="hardAlpha"/>
<feOffset dy="10"/>
<feGaussianBlur stdDeviation="6.5"/>
<feColorMatrix type="matrix" values="0 0 0 0 0 0 0 0 0 0.6 0 0 0 0 0.6 0 0 0 1 0"/>
<feBlend mode="color-dodge" in2="effect1_dropShadow_189_166" result="effect2_dropShadow_189_166"/>
<feBlend mode="normal" in="SourceGraphic" in2="effect2_dropShadow_189_166" result="shape"/>
<feColorMatrix in="SourceAlpha" type="matrix" values="0 0 0 0 0 0 0 0 0 0 0 0 0 0 0 0 0 0 127 0" result="hardAlpha"/>
<feOffset dx="-0.65" dy="1.3"/>
<feGaussianBlur stdDeviation="0.325"/>
<feComposite in2="hardAlpha" operator="arithmetic" k2="-1" k3="1"/>
<feColorMatrix type="matrix" values="0 0 0 0 1 0 0 0 0 1 0 0 0 0 1 0 0 0 0.5 0"/>
<feBlend mode="normal" in2="shape" result="effect3_innerShadow_189_166"/>
</filter>
<filter id="filter26_f_189_166" x="487.879" y="517.367" width="162.608" height="163.142" filterUnits="userSpaceOnUse" color-interpolation-filters="sRGB">
<feFlood flood-opacity="0" result="BackgroundImageFix"/>
<feBlend mode="normal" in="SourceGraphic" in2="BackgroundImageFix" result="shape"/>
<feGaussianBlur stdDeviation="0.5" result="effect1_foregroundBlur_189_166"/>
</filter>
<filter id="filter27_f_189_166" x="488.213" y="517.701" width="161.941" height="162.475" filterUnits="userSpaceOnUse" color-interpolation-filters="sRGB">
<feFlood flood-opacity="0" result="BackgroundImageFix"/>
<feBlend mode="normal" in="SourceGraphic" in2="BackgroundImageFix" result="shape"/>
<feGaussianBlur stdDeviation="0.333333" result="effect1_foregroundBlur_189_166"/>
</filter>
<filter id="filter28_f_189_166" x="1482.53" y="238.816" width="70.5898" height="143.449" filterUnits="userSpaceOnUse" color-interpolation-filters="sRGB">
<feFlood flood-opacity="0" result="BackgroundImageFix"/>
<feBlend mode="normal" in="SourceGraphic" in2="BackgroundImageFix" result="shape"/>
<feGaussianBlur stdDeviation="7.5" result="effect1_foregroundBlur_189_166"/>
</filter>
<filter id="filter29_f_189_166" x="1484.37" y="244.182" width="66.9783" height="130.254" filterUnits="userSpaceOnUse" color-interpolation-filters="sRGB">
<feFlood flood-opacity="0" result="BackgroundImageFix"/>
<feBlend mode="normal" in="SourceGraphic" in2="BackgroundImageFix" result="shape"/>
<feGaussianBlur stdDeviation="7.5" result="effect1_foregroundBlur_189_166"/>
</filter>
<filter id="filter30_f_189_166" x="1493.87" y="252.924" width="47.967" height="112.012" filterUnits="userSpaceOnUse" color-interpolation-filters="sRGB">
<feFlood flood-opacity="0" result="BackgroundImageFix"/>
<feBlend mode="normal" in="SourceGraphic" in2="BackgroundImageFix" result="shape"/>
<feGaussianBlur stdDeviation="2.5" result="effect1_foregroundBlur_189_166"/>
</filter>
<filter id="filter31_ddi_189_166" x="1492.87" y="257.682" width="49.9783" height="113.254" filterUnits="userSpaceOnUse" color-interpolation-filters="sRGB">
<feFlood flood-opacity="0" result="BackgroundImageFix"/>
<feColorMatrix in="SourceAlpha" type="matrix" values="0 0 0 0 0 0 0 0 0 0 0 0 0 0 0 0 0 0 127 0" result="hardAlpha"/>
<feOffset dy="3.25"/>
<feGaussianBlur stdDeviation="1.25"/>
<feColorMatrix type="matrix" values="0 0 0 0 0 0 0 0 0 0.3 0 0 0 0 0.275 0 0 0 0.7 0"/>
<feBlend mode="multiply" in2="BackgroundImageFix" result="effect1_dropShadow_189_166"/>
<feColorMatrix in="SourceAlpha" type="matrix" values="0 0 0 0 0 0 0 0 0 0 0 0 0 0 0 0 0 0 127 0" result="hardAlpha"/>
<feOffset dy="5"/>
<feGaussianBlur stdDeviation="3.25"/>
<feColorMatrix type="matrix" values="0 0 0 0 0 0 0 0 0 0.6 0 0 0 0 0.6 0 0 0 1 0"/>
<feBlend mode="color-dodge" in2="effect1_dropShadow_189_166" result="effect2_dropShadow_189_166"/>
<feBlend mode="normal" in="SourceGraphic" in2="effect2_dropShadow_189_166" result="shape"/>
<feColorMatrix in="SourceAlpha" type="matrix" values="0 0 0 0 0 0 0 0 0 0 0 0 0 0 0 0 0 0 127 0" result="hardAlpha"/>
<feOffset dx="-0.325" dy="0.65"/>
<feGaussianBlur stdDeviation="0.1625"/>
<feComposite in2="hardAlpha" operator="arithmetic" k2="-1" k3="1"/>
<feColorMatrix type="matrix" values="0 0 0 0 1 0 0 0 0 1 0 0 0 0 1 0 0 0 0.5 0"/>
<feBlend mode="normal" in2="shape" result="effect3_innerShadow_189_166"/>
</filter>
<filter id="filter32_f_189_166" x="1499.48" y="260.255" width="36.7424" height="99.0569" filterUnits="userSpaceOnUse" color-interpolation-filters="sRGB">
<feFlood flood-opacity="0" result="BackgroundImageFix"/>
<feBlend mode="normal" in="SourceGraphic" in2="BackgroundImageFix" result="shape"/>
<feGaussianBlur stdDeviation="0.25" result="effect1_foregroundBlur_189_166"/>
</filter>
<filter id="filter33_f_189_166" x="1500.12" y="261.679" width="35.4447" height="96.9656" filterUnits="userSpaceOnUse" color-interpolation-filters="sRGB">
<feFlood flood-opacity="0" result="BackgroundImageFix"/>
<feBlend mode="normal" in="SourceGraphic" in2="BackgroundImageFix" result="shape"/>
<feGaussianBlur stdDeviation="0.166667" result="effect1_foregroundBlur_189_166"/>
</filter>
</defs>
</svg>
