<svg width="331" height="331" viewBox="0 0 331 331" fill="none" xmlns="http://www.w3.org/2000/svg">
<path d="M162.896 13.1411C162.24 13.1383 161.68 12.9654 161.216 12.6225C160.751 12.2795 160.396 11.7803 160.15 11.1248C159.903 10.4694 159.78 9.67977 159.78 8.75602C159.78 7.83504 159.903 7.04819 160.15 6.39549C160.398 5.74278 160.755 5.24495 161.22 4.902C161.687 4.55906 162.246 4.38758 162.896 4.38758C163.546 4.38758 164.103 4.56044 164.568 4.90615C165.032 5.2491 165.388 5.74693 165.634 6.39964C165.883 7.04958 166.007 7.83504 166.007 8.75602C166.007 9.68253 165.884 10.4735 165.638 11.129C165.392 11.7817 165.037 12.2809 164.572 12.6266C164.107 12.9696 163.549 13.1411 162.896 13.1411ZM162.896 12.0334C163.471 12.0334 163.921 11.7527 164.244 11.1912C164.57 10.6298 164.734 9.81805 164.734 8.75602C164.734 8.05076 164.659 7.45475 164.51 6.96799C164.363 6.47846 164.151 6.10785 163.875 5.85617C163.601 5.60173 163.275 5.47451 162.896 5.47451C162.323 5.47451 161.874 5.75661 161.548 6.32081C161.221 6.88502 161.057 7.69675 161.054 8.75602C161.054 9.46404 161.127 10.0628 161.274 10.5523C161.423 11.0391 161.635 11.4083 161.909 11.66C162.182 11.9089 162.511 12.0334 162.896 12.0334ZM169.267 10.1378C170.283 10.1378 171.101 10.9556 171.101 11.9603C171.101 12.9766 170.283 13.7944 169.267 13.7944C168.274 13.7944 167.444 12.9766 167.444 11.9603C167.444 10.9556 168.274 10.1378 169.267 10.1378ZM169.267 13.0935C169.898 13.0935 170.4 12.5911 170.4 11.9603C170.4 11.3411 169.898 10.8388 169.267 10.8388C168.659 10.8388 168.145 11.3411 168.145 11.9603C168.145 12.5911 168.659 13.0935 169.267 13.0935Z" fill="white"/>
<path opacity="0.5" d="M79.0373 38.208C78.543 38.4912 78.052 38.6593 77.5645 38.7123C77.0794 38.7639 76.6364 38.7037 76.2356 38.5318C75.8357 38.356 75.5113 38.0734 75.2622 37.6838L76.3925 37.0362C76.5335 37.2455 76.7166 37.3924 76.9417 37.477C77.1679 37.5578 77.4141 37.5793 77.6801 37.5416C77.9462 37.504 78.2112 37.4095 78.4752 37.2583C78.7655 37.0919 78.9931 36.8946 79.1579 36.6664C79.325 36.4367 79.42 36.1958 79.4429 35.9437C79.4644 35.6891 79.4063 35.4435 79.2686 35.2069C79.1253 34.9607 78.9359 34.7808 78.7002 34.6672C78.4655 34.5498 78.1957 34.5068 77.8907 34.538C77.5881 34.568 77.2665 34.6805 76.9257 34.8757L76.3029 35.2325L75.7772 34.3289L76.3999 33.9721C76.6735 33.8154 76.885 33.6289 77.0343 33.4127C77.1861 33.195 77.27 32.9653 77.286 32.7234C77.3007 32.4792 77.2392 32.2387 77.1015 32.002C76.9694 31.7749 76.803 31.6073 76.6025 31.4991C76.4029 31.3871 76.1817 31.3369 75.9389 31.3485C75.6985 31.3588 75.4523 31.4361 75.2003 31.5804C74.9603 31.7179 74.7617 31.8907 74.6044 32.0987C74.448 32.303 74.3524 32.5236 74.3174 32.7604C74.281 32.9948 74.3234 33.2271 74.4445 33.4573L73.3682 34.0739C73.1493 33.6702 73.0638 33.2538 73.1117 32.8247C73.1621 32.3943 73.3226 31.9884 73.5935 31.6069C73.8643 31.2255 74.2253 30.9055 74.6764 30.647C75.1492 30.3762 75.6107 30.2345 76.061 30.222C76.5122 30.2057 76.9198 30.2957 77.2836 30.4921C77.6499 30.6871 77.9368 30.9657 78.1444 31.3281C78.3861 31.7379 78.4739 32.1529 78.4081 32.5731C78.3446 32.9919 78.1494 33.3603 77.8224 33.6783L77.8558 33.7357C78.3885 33.5293 78.8803 33.5057 79.3313 33.6649C79.7847 33.8227 80.1451 34.1342 80.4126 34.5993C80.65 35.0019 80.748 35.4287 80.7064 35.8797C80.6672 36.3292 80.5055 36.7581 80.2215 37.1662C79.936 37.572 79.5413 37.9193 79.0373 38.208ZM85.8749 34.2908C85.3805 34.574 84.8896 34.7421 84.4021 34.7951C83.9169 34.8467 83.474 34.7866 83.0731 34.6146C82.6733 34.4389 82.3488 34.1562 82.0998 33.7666L83.2301 33.1191C83.371 33.3284 83.5541 33.4753 83.7793 33.5598C84.0055 33.6406 84.2516 33.6622 84.5177 33.6245C84.7837 33.5868 85.0487 33.4924 85.3127 33.3411C85.6031 33.1748 85.8307 32.9775 85.9954 32.7492C86.1626 32.5196 86.2576 32.2787 86.2805 32.0265C86.3019 31.772 86.2438 31.5264 86.1061 31.2897C85.9629 31.0435 85.7734 30.8636 85.5377 30.75C85.303 30.6326 85.0332 30.5896 84.7283 30.6209C84.4257 30.6508 84.104 30.7634 83.7632 30.9586L83.1405 31.3154L82.6147 30.4117L83.2375 30.055C83.5111 29.8982 83.7225 29.7118 83.8719 29.4955C84.0236 29.2779 84.1075 29.0481 84.1236 28.8063C84.1383 28.562 84.0767 28.3215 83.939 28.0849C83.8069 27.8578 83.6406 27.6901 83.44 27.5819C83.2405 27.4699 83.0193 27.4197 82.7765 27.4314C82.536 27.4416 82.2898 27.5189 82.0379 27.6633C81.7979 27.8007 81.5992 27.9735 81.4419 28.1816C81.2856 28.3859 81.1899 28.6064 81.1549 28.8432C81.1185 29.0776 81.1609 29.3099 81.2821 29.5401L80.2057 30.1567C79.9869 29.753 79.9014 29.3366 79.9493 28.9076C79.9996 28.4771 80.1602 28.0712 80.431 27.6898C80.7018 27.3083 81.0628 26.9883 81.514 26.7299C81.9867 26.459 82.4482 26.3174 82.8985 26.3048C83.3498 26.2885 83.7574 26.3786 84.1212 26.5749C84.4874 26.7699 84.7743 27.0486 84.982 27.4109C85.2236 27.8207 85.3115 28.2357 85.2456 28.6559C85.1821 29.0748 84.9869 29.4432 84.66 29.7612L84.6934 29.8185C85.2261 29.6122 85.7179 29.5886 86.1689 29.7478C86.6223 29.9056 86.9827 30.217 87.2501 30.6822C87.4876 31.0848 87.5855 31.5116 87.5439 31.9625C87.5047 32.4121 87.3431 32.8409 87.059 33.2491C86.7735 33.6549 86.3788 34.0021 85.8749 34.2908ZM92.7249 30.3952C92.1548 30.7186 91.5819 30.8476 91.0063 30.7822C90.4306 30.7167 89.8712 30.4619 89.328 30.0177C88.7847 29.5735 88.2809 28.9522 87.8163 28.1538C87.3531 27.3577 87.0642 26.6164 86.9495 25.9299C86.8373 25.242 86.8965 24.6344 87.1272 24.107C87.3602 23.5782 87.7588 23.1523 88.3227 22.8292C88.8867 22.5061 89.4572 22.3785 90.0342 22.4464C90.6098 22.5118 91.1686 22.7654 91.7104 23.2073C92.2533 23.6453 92.7563 24.2623 93.2194 25.0584C93.6854 25.8592 93.9764 26.604 94.0925 27.293C94.2071 27.9795 94.1498 28.5876 93.9205 29.1174C93.6898 29.6448 93.2913 30.0707 92.7249 30.3952ZM92.1679 29.4378C92.667 29.1518 92.9158 28.6858 92.9143 28.0396C92.9151 27.3921 92.6484 26.6094 92.1143 25.6915C91.7596 25.0819 91.3951 24.6039 91.0207 24.2574C90.6473 23.9071 90.2774 23.692 89.9108 23.6119C89.5453 23.5281 89.1981 23.5803 88.8693 23.7687C88.3726 24.0533 88.1245 24.5205 88.1251 25.1704C88.1256 25.8203 88.3911 26.6037 88.9214 27.5207C89.2775 28.1326 89.6422 28.6137 90.0156 28.964C90.39 29.3105 90.7592 29.5244 91.1234 29.6059C91.4861 29.6849 91.8343 29.6289 92.1679 29.4378ZM96.7427 24.6324C97.6246 24.1272 98.7454 24.4275 99.2507 25.2959C99.7618 26.1743 99.4635 27.2877 98.5816 27.7929C97.72 28.2865 96.589 27.992 96.0779 27.1135C95.5726 26.2451 95.8811 25.126 96.7427 24.6324ZM98.2291 27.187C98.7765 26.8735 98.9598 26.1896 98.6425 25.6443C98.3311 25.1091 97.6426 24.9246 97.0952 25.2382C96.5681 25.5402 96.3747 26.2299 96.6861 26.7651C97.0034 27.3103 97.702 27.489 98.2291 27.187Z" fill="white"/>
<g opacity="0.5">
<path d="M239.459 30.714C238.965 30.4308 238.573 30.0929 238.283 29.7005C237.995 29.3094 237.826 28.8987 237.776 28.4682C237.729 28.0368 237.814 27.6166 238.029 27.2078L239.16 27.8553C239.048 28.0811 239.011 28.3119 239.05 28.5477C239.092 28.7824 239.197 29.0047 239.362 29.2145C239.528 29.4243 239.743 29.6048 240.007 29.756C240.298 29.9224 240.584 30.0193 240.865 30.0467C241.149 30.0756 241.407 30.0368 241.638 29.9304C241.871 29.8215 242.057 29.6488 242.194 29.4121C242.338 29.1659 242.4 28.9131 242.381 28.6538C242.366 28.3935 242.269 28.1401 242.089 27.8937C241.912 27.6486 241.653 27.4285 241.312 27.2333L240.689 26.8765L241.215 25.9729L241.838 26.3296C242.111 26.4864 242.38 26.5748 242.643 26.5951C242.909 26.6167 243.151 26.5739 243.371 26.4668C243.591 26.3572 243.77 26.1841 243.908 25.9475C244.04 25.7204 244.103 25.4936 244.097 25.2671C244.095 25.0397 244.029 24.8245 243.897 24.6217C243.768 24.4202 243.577 24.2473 243.325 24.1029C243.085 23.9654 242.835 23.8811 242.575 23.8499C242.319 23.8178 242.078 23.8458 241.854 23.9341C241.631 24.0201 241.45 24.1726 241.309 24.3918L240.233 23.7752C240.476 23.3853 240.797 23.1036 241.195 22.9303C241.596 22.7583 242.03 22.6933 242.499 22.7353C242.967 22.7773 243.427 22.9276 243.878 23.186C244.351 23.4569 244.705 23.7826 244.941 24.1633C245.181 24.5429 245.306 24.9382 245.317 25.349C245.33 25.7612 245.23 26.1471 245.018 26.5067C244.781 26.9192 244.463 27.2023 244.063 27.3558C243.666 27.5106 243.246 27.5271 242.805 27.4051L242.772 27.4625C243.218 27.8171 243.485 28.2279 243.572 28.6951C243.66 29.1636 243.569 29.629 243.297 30.0914C243.064 30.4968 242.74 30.7943 242.326 30.9841C241.914 31.1751 241.459 31.2507 240.961 31.2107C240.464 31.1682 239.963 31.0027 239.459 30.714ZM246.285 34.6526C245.717 34.3244 245.318 33.8966 245.087 33.3692C244.857 32.8418 244.799 32.2337 244.915 31.5448C245.032 30.8559 245.322 30.1122 245.786 29.3138C246.25 28.5177 246.752 27.8988 247.294 27.457C247.838 27.0166 248.398 26.7636 248.974 26.6982C249.552 26.6341 250.123 26.7636 250.687 27.0867C251.251 27.4098 251.647 27.8362 251.877 28.366C252.107 28.8934 252.165 29.5003 252.051 30.1868C251.94 30.8723 251.653 31.6131 251.19 32.4092C250.724 33.21 250.219 33.8325 249.676 34.2767C249.134 34.7185 248.575 34.9733 247.998 35.0411C247.422 35.1066 246.851 34.9771 246.285 34.6526ZM246.842 33.6952C247.341 33.9812 247.872 33.962 248.435 33.6375C249.001 33.3145 249.55 32.694 250.084 31.776C250.439 31.1665 250.674 30.6142 250.789 30.1192C250.908 29.6232 250.911 29.1977 250.798 28.8427C250.688 28.4867 250.469 28.2145 250.14 28.0261C249.643 27.7416 249.112 27.762 248.545 28.0874C247.978 28.4129 247.427 29.0327 246.892 29.9469C246.535 30.5588 246.298 31.1128 246.179 31.6088C246.064 32.1038 246.062 32.5281 246.173 32.8817C246.285 33.233 246.508 33.5041 246.842 33.6952ZM253.323 35.2238C254.205 35.7291 254.503 36.8424 253.998 37.7108C253.487 38.5893 252.366 38.8896 251.484 38.3843C250.622 37.8907 250.314 36.7716 250.825 35.8931C251.33 35.0247 252.461 34.7302 253.323 35.2238ZM251.837 37.7785C252.384 38.0921 253.072 37.9076 253.39 37.3623C253.701 36.8272 253.518 36.1433 252.97 35.8297C252.443 35.5277 251.745 35.7064 251.433 36.2415C251.116 36.7868 251.309 37.4765 251.837 37.7785Z" fill="white"/>
</g>
<path opacity="0.5" d="M294.606 83.884C294.421 83.5538 294.293 83.1967 294.223 82.8128C294.155 82.4312 294.18 82.0344 294.298 81.6222C294.417 81.2101 294.658 80.7964 295.021 80.3812C295.385 79.9683 295.907 79.5674 296.586 79.1783C297.229 78.8099 297.837 78.546 298.41 78.3867C298.985 78.2299 299.514 78.1738 299.997 78.2187C300.483 78.2622 300.916 78.4033 301.295 78.642C301.673 78.8807 301.987 79.2128 302.234 79.6383C302.489 80.0758 302.628 80.5138 302.653 80.9522C302.678 81.3906 302.599 81.8023 302.417 82.1873C302.236 82.5747 301.968 82.9084 301.612 83.1885L300.976 82.0948C301.24 81.8447 301.405 81.5541 301.472 81.2228C301.538 80.8915 301.468 80.5489 301.262 80.1951C300.949 79.6573 300.47 79.3725 299.825 79.3407C299.18 79.3114 298.439 79.5354 297.6 80.0129L297.631 80.0666C297.914 80.0737 298.182 80.1274 298.435 80.2276C298.692 80.3288 298.927 80.4715 299.14 80.6556C299.357 80.8407 299.539 81.0612 299.688 81.317C299.936 81.7425 300.055 82.1872 300.047 82.651C300.042 83.1159 299.917 83.5556 299.672 83.9701C299.427 84.3847 299.069 84.7267 298.599 84.9961C298.128 85.2656 297.64 85.4033 297.135 85.4091C296.631 85.4173 296.156 85.2941 295.711 85.0395C295.267 84.7835 294.899 84.3984 294.606 83.884ZM295.54 83.3443C295.704 83.6264 295.921 83.8387 296.189 83.9813C296.458 84.1238 296.747 84.1923 297.057 84.1867C297.368 84.181 297.668 84.095 297.958 83.9287C298.242 83.7664 298.463 83.5553 298.622 83.2952C298.782 83.0376 298.867 82.7596 298.876 82.4613C298.886 82.1654 298.81 81.8776 298.647 81.5979C298.523 81.3852 298.368 81.2113 298.18 81.0764C297.994 80.9438 297.79 80.8507 297.566 80.7969C297.343 80.7431 297.115 80.7304 296.882 80.7588C296.653 80.7882 296.435 80.862 296.228 80.9802C295.952 81.1383 295.734 81.3481 295.572 81.6095C295.412 81.8733 295.325 82.1576 295.31 82.4624C295.299 82.7682 295.376 83.0622 295.54 83.3443ZM298.492 90.6116C298.165 90.0436 298.033 89.4736 298.097 88.9016C298.161 88.3295 298.415 87.7741 298.86 87.2356C299.305 86.697 299.928 86.1981 300.73 85.7389C301.529 85.2811 302.274 84.9963 302.964 84.8846C303.655 84.7753 304.267 84.8362 304.798 85.0673C305.331 85.3009 305.76 85.6985 306.087 86.2603C306.414 86.822 306.544 87.3897 306.478 87.9631C306.414 88.5352 306.161 89.0898 305.718 89.6271C305.28 90.1653 304.661 90.6633 303.862 91.1211C303.058 91.5817 302.309 91.8685 301.617 91.9816C300.927 92.0933 300.315 92.0343 299.781 91.8045C299.25 91.5734 298.82 91.1757 298.492 90.6116ZM299.453 90.061C299.742 90.5582 300.212 90.8071 300.862 90.8077C301.513 90.8107 302.299 90.5482 303.221 90.0203C303.833 89.6697 304.313 89.3089 304.66 88.9378C305.011 88.5678 305.226 88.2007 305.305 87.8365C305.388 87.4734 305.335 87.1281 305.144 86.8006C304.856 86.3057 304.385 86.0575 303.732 86.0559C303.078 86.0543 302.291 86.3156 301.37 86.8397C300.756 87.1917 300.273 87.5527 299.922 87.9227C299.575 88.2938 299.361 88.6602 299.28 89.0219C299.202 89.3823 299.26 89.7287 299.453 90.061ZM304.302 94.6254C304.813 95.5039 304.515 96.6172 303.643 97.1166C302.761 97.6219 301.64 97.3215 301.129 96.4431C300.63 95.5848 300.922 94.4613 301.804 93.9561C302.676 93.4567 303.802 93.7671 304.302 94.6254ZM301.737 96.0946C302.054 96.6399 302.743 96.8244 303.29 96.5108C303.828 96.203 304.011 95.5191 303.694 94.9738C303.388 94.4488 302.694 94.2542 302.156 94.562C301.609 94.8756 301.432 95.5696 301.737 96.0946Z" fill="white"/>
<path opacity="0.5" d="M26.1858 95.778C25.8993 96.2704 25.5582 96.6615 25.1624 96.9511C24.7681 97.2384 24.3544 97.4078 23.9213 97.4592C23.4872 97.507 23.0648 97.4244 22.6543 97.2115L23.3095 96.0856C23.5362 96.1964 23.7682 96.2321 24.0055 96.1927C24.2418 96.1496 24.4657 96.0452 24.6773 95.8795C24.8888 95.7139 25.0711 95.4996 25.2241 95.2366C25.3924 94.9474 25.4908 94.6627 25.5194 94.3826C25.5494 94.1002 25.5112 93.8441 25.4049 93.6143C25.2963 93.3831 25.1231 93.1994 24.8856 93.0633C24.6384 92.9217 24.3843 92.8606 24.1234 92.8801C23.8615 92.8958 23.6063 92.9934 23.3579 93.173C23.1108 93.3502 22.8885 93.6085 22.691 93.948L22.33 94.5683L21.4229 94.0486L21.7839 93.4283C21.9424 93.1558 22.0323 92.8885 22.0535 92.6266C22.0762 92.3622 22.034 92.1213 21.9269 91.9038C21.8175 91.685 21.644 91.5075 21.4064 91.3714C21.1784 91.2408 20.9505 91.1787 20.7227 91.1853C20.4939 91.1881 20.2773 91.2552 20.0728 91.3867C19.8697 91.5157 19.6952 91.7058 19.5491 91.9568C19.41 92.1958 19.3244 92.4448 19.2922 92.7036C19.2589 92.9587 19.2864 93.1975 19.3744 93.4201C19.4601 93.6413 19.613 93.8213 19.833 93.9601L19.2091 95.0322C18.8177 94.7921 18.5355 94.4742 18.3625 94.0787C18.1909 93.6807 18.127 93.2489 18.1708 92.7831C18.2146 92.3174 18.3672 91.8598 18.6287 91.4104C18.9027 90.9395 19.2316 90.586 19.6153 90.35C19.998 90.1103 20.3959 89.9845 20.8092 89.9726C21.2238 89.9584 21.6117 90.0562 21.9726 90.2662C22.3868 90.5003 22.6704 90.8158 22.8235 91.2126C22.9779 91.6071 22.9931 92.0237 22.8689 92.4626L22.9265 92.4956C23.2846 92.0505 23.6988 91.7842 24.1689 91.6966C24.6405 91.6065 25.1083 91.6961 25.5725 91.9652C25.9795 92.1951 26.2777 92.5158 26.4671 92.9271C26.6579 93.336 26.7324 93.7883 26.6904 94.2838C26.6461 94.7779 26.4779 95.276 26.1858 95.778ZM30.1704 88.9793C29.8384 89.5445 29.4067 89.9426 28.8755 90.1737C28.3442 90.4049 27.7323 90.4639 27.0398 90.3508C26.3472 90.2377 25.6002 89.9516 24.7987 89.4924C23.9995 89.0346 23.3787 88.5371 22.9361 87.9999C22.495 87.4603 22.2424 86.9044 22.1785 86.3324C22.116 85.7579 22.2482 85.1898 22.575 84.628C22.9019 84.0662 23.3322 83.6705 23.8658 83.4407C24.3971 83.2096 25.0078 83.1499 25.6979 83.2616C26.387 83.3695 27.1312 83.6524 27.9303 84.1102C28.7342 84.5708 29.3587 85.0703 29.8036 85.6089C30.2462 86.1461 30.5006 86.7015 30.5669 87.2749C30.6308 87.847 30.4987 88.4151 30.1704 88.9793ZM29.2093 88.4287C29.4986 87.9314 29.481 87.4034 29.1566 86.8447C28.8336 86.2835 28.2113 85.739 27.2898 85.211C26.6778 84.8604 26.1231 84.6287 25.6257 84.5158C25.1272 84.3992 24.6992 84.3978 24.3417 84.5118C23.9832 84.622 23.7087 84.8408 23.5182 85.1683C23.2303 85.6631 23.249 86.1918 23.5744 86.7544C23.8999 87.3169 24.5215 87.8626 25.4392 88.3916C26.0535 88.7435 26.6099 88.9778 27.1084 89.0945C27.6059 89.2074 28.0327 89.208 28.3888 89.0965C28.7424 88.9836 29.016 88.761 29.2093 88.4287ZM34.1391 82.1583C33.8071 82.7235 33.3755 83.1217 32.8442 83.3528C32.313 83.5839 31.7011 83.643 31.0085 83.5299C30.316 83.4168 29.5689 83.1307 28.7674 82.6715C27.9683 82.2137 27.3474 81.7162 26.9049 81.1789C26.4637 80.6393 26.2112 80.0835 26.1473 79.5114C26.0848 78.9369 26.2169 78.3688 26.5438 77.8071C26.8707 77.2453 27.3009 76.8495 27.8346 76.6198C28.3658 76.3886 28.9765 76.3289 29.6666 76.4406C30.3558 76.5486 31.0999 76.8314 31.899 77.2893C32.703 77.7498 33.3274 78.2494 33.7724 78.788C34.2149 79.3252 34.4694 79.8805 34.5357 80.454C34.5996 81.0261 34.4674 81.5942 34.1391 82.1583ZM33.178 81.6077C33.4673 81.1105 33.4498 80.5825 33.1254 80.0237C32.8023 79.4626 32.18 78.918 31.2585 78.3901C30.6466 78.0395 30.0919 77.8078 29.5944 77.6949C29.0959 77.5783 28.6679 77.5769 28.3105 77.6908C27.952 77.801 27.6775 78.0199 27.4869 78.3474C27.199 78.8422 27.2177 79.3709 27.5432 79.9334C27.8686 80.496 28.4902 81.0417 29.4079 81.5707C30.0223 81.9226 30.5787 82.1569 31.0772 82.2736C31.5746 82.3864 32.0014 82.3871 32.3575 82.2755C32.7112 82.1626 32.9847 81.94 33.178 81.6077ZM34.7373 75.1587C35.2485 74.2803 36.3693 73.9799 37.2411 74.4794C38.123 74.9846 38.4213 76.0979 37.9101 76.9764C37.4107 77.8347 36.284 78.1451 35.4021 77.6399C34.5304 77.1405 34.2379 76.017 34.7373 75.1587ZM37.3019 76.628C37.6192 76.0827 37.4359 75.3988 36.8885 75.0852C36.3513 74.7774 35.6628 74.9619 35.3455 75.5072C35.04 76.0322 35.2174 76.7262 35.7546 77.034C36.302 77.3476 36.9964 77.153 37.3019 76.628Z" fill="white"/>
<path opacity="0.5" d="M36.0002 249.666L35.1939 250.128L31.1635 249.124C30.7283 249.019 30.355 248.941 30.0437 248.89C29.7286 248.838 29.45 248.824 29.2079 248.848C28.9659 248.872 28.7369 248.946 28.5209 249.069C28.2761 249.21 28.0983 249.388 27.9875 249.605C27.8743 249.822 27.8274 250.058 27.8468 250.311C27.8639 250.566 27.9447 250.818 28.0894 251.066C28.2424 251.329 28.4299 251.528 28.652 251.662C28.874 251.796 29.114 251.86 29.372 251.852C29.63 251.845 29.891 251.765 30.155 251.614L30.7704 252.672C30.3217 252.929 29.8695 253.051 29.4139 253.038C28.9583 253.025 28.5338 252.892 28.1404 252.639C27.7446 252.388 27.4138 252.034 27.1482 251.577C26.8797 251.116 26.7357 250.656 26.716 250.199C26.6925 249.741 26.7814 249.322 26.9828 248.942C27.1817 248.563 27.4791 248.261 27.8751 248.034C28.1487 247.877 28.4462 247.775 28.7675 247.728C29.0875 247.679 29.4814 247.687 29.949 247.754C30.4142 247.822 31.0048 247.949 31.7209 248.135L34.1035 248.716L34.1575 248.685L32.2339 245.379L33.1878 244.832L36.0002 249.666ZM30.9624 244.307L30.0625 244.823L23.1837 244.533L22.7727 243.826L24.0974 243.067L24.3582 243.515L29.2857 243.719L29.3433 243.686L26.8126 239.336L27.7557 238.796L30.9624 244.307ZM30.3765 240.001L28.663 240.982L28.2485 241.21L23.0001 244.217L22.3888 243.166L29.761 238.943L30.3765 240.001ZM26.927 233.792C27.2543 234.36 27.386 234.93 27.3221 235.502C27.2582 236.074 27.0037 236.629 26.5588 237.168C26.1138 237.706 25.4906 238.205 24.689 238.665C23.8899 239.122 23.1453 239.407 22.4551 239.519C21.7636 239.628 21.1522 239.567 20.6209 239.336C20.0883 239.103 19.6586 238.705 19.3317 238.143C19.0048 237.581 18.8745 237.014 18.9408 236.44C19.0047 235.868 19.258 235.314 19.7005 234.776C20.1393 234.238 20.7583 233.74 21.5574 233.282C22.3613 232.822 23.1096 232.535 23.8021 232.422C24.4922 232.31 25.1041 232.369 25.6378 232.599C26.169 232.83 26.5988 233.228 26.927 233.792ZM25.9659 234.342C25.6766 233.845 25.207 233.596 24.5571 233.596C23.9058 233.593 23.1194 233.855 22.1979 234.383C21.586 234.734 21.1064 235.095 20.7591 235.466C20.4081 235.836 20.1929 236.203 20.1136 236.567C20.0305 236.93 20.0843 237.275 20.2748 237.603C20.5627 238.098 21.0335 238.346 21.6872 238.347C22.3409 238.349 23.128 238.088 24.0485 237.564C24.6629 237.212 25.1456 236.851 25.4966 236.481C25.8439 236.11 26.0578 235.743 26.1385 235.381C26.2168 235.021 26.1593 234.675 25.9659 234.342ZM21.1171 229.778C20.6059 228.9 20.9043 227.786 21.776 227.287C22.6579 226.782 23.7787 227.082 24.2899 227.96C24.7893 228.819 24.4968 229.942 23.615 230.447C22.7432 230.947 21.6165 230.636 21.1171 229.778ZM23.6817 228.309C23.3644 227.764 22.6759 227.579 22.1285 227.893C21.5913 228.2 21.408 228.884 21.7253 229.43C22.0308 229.955 22.7252 230.149 23.2624 229.841C23.8098 229.528 23.9872 228.834 23.6817 228.309Z" fill="white"/>
<path opacity="0.5" d="M309.11 236.775L301.738 232.552L302.384 231.44L308.641 235.024L308.666 234.981L308.536 232.564L309.602 233.175L309.738 235.696L309.11 236.775ZM300.405 234.841L301.212 235.303L302.351 239.269C302.477 239.695 302.596 240.054 302.707 240.348C302.819 240.644 302.946 240.891 303.088 241.087C303.23 241.283 303.408 241.443 303.624 241.567C303.869 241.707 304.114 241.77 304.358 241.757C304.605 241.746 304.834 241.668 305.045 241.525C305.259 241.383 305.439 241.187 305.583 240.939C305.736 240.676 305.816 240.415 305.822 240.158C305.828 239.9 305.763 239.662 305.627 239.444C305.492 239.226 305.292 239.041 305.028 238.89L305.644 237.832C306.092 238.089 306.425 238.417 306.641 238.815C306.858 239.213 306.954 239.644 306.93 240.109C306.909 240.575 306.765 241.036 306.499 241.492C306.231 241.954 305.902 242.307 305.513 242.553C305.125 242.802 304.714 242.935 304.282 242.952C303.852 242.97 303.439 242.866 303.043 242.639C302.77 242.483 302.532 242.278 302.33 242.025C302.127 241.775 301.938 241.432 301.762 240.997C301.589 240.563 301.405 239.992 301.209 239.284L300.525 236.946L300.471 236.915L298.547 240.221L297.593 239.675L300.405 234.841ZM295.016 243.823C295.348 243.258 295.78 242.86 296.311 242.629C296.842 242.398 297.454 242.339 298.147 242.452C298.839 242.565 299.586 242.851 300.388 243.31C301.187 243.768 301.808 244.265 302.25 244.803C302.692 245.342 302.944 245.898 303.008 246.47C303.071 247.045 302.938 247.613 302.611 248.174C302.285 248.736 301.854 249.132 301.321 249.362C300.789 249.593 300.179 249.653 299.489 249.541C298.799 249.433 298.055 249.15 297.256 248.692C296.452 248.232 295.828 247.732 295.383 247.194C294.94 246.656 294.686 246.101 294.62 245.528C294.556 244.955 294.688 244.387 295.016 243.823ZM295.977 244.374C295.688 244.871 295.705 245.399 296.03 245.958C296.353 246.519 296.975 247.063 297.897 247.591C298.509 247.942 299.063 248.174 299.561 248.287C300.059 248.403 300.487 248.405 300.845 248.291C301.203 248.18 301.478 247.962 301.668 247.634C301.956 247.139 301.938 246.611 301.612 246.048C301.287 245.486 300.665 244.94 299.747 244.411C299.133 244.059 298.577 243.825 298.078 243.708C297.581 243.595 297.154 243.594 296.798 243.706C296.444 243.819 296.171 244.041 295.977 244.374ZM294.418 250.823C293.907 251.701 292.786 252.002 291.914 251.502C291.032 250.997 290.734 249.884 291.245 249.005C291.745 248.147 292.871 247.836 293.753 248.342C294.625 248.841 294.917 249.964 294.418 250.823ZM291.853 249.354C291.536 249.899 291.719 250.583 292.267 250.896C292.804 251.204 293.492 251.02 293.81 250.474C294.115 249.949 293.938 249.255 293.401 248.947C292.853 248.634 292.159 248.828 291.853 249.354Z" fill="white"/>
<path opacity="0.5" d="M97.6726 303.189L97.1369 303.948L93.0584 304.741C92.6198 304.831 92.2485 304.918 91.9446 305.003C91.6369 305.089 91.3784 305.194 91.169 305.318C90.9597 305.442 90.7833 305.605 90.6398 305.809C90.4771 306.039 90.3913 306.276 90.3823 306.519C90.3718 306.764 90.4288 306.998 90.5536 307.219C90.6767 307.443 90.8564 307.636 91.0926 307.801C91.3424 307.974 91.5964 308.075 91.8544 308.103C92.1124 308.13 92.3567 308.086 92.5874 307.97C92.8181 307.854 93.0212 307.672 93.1966 307.424L94.2016 308.122C93.9034 308.545 93.545 308.846 93.1265 309.027C92.7079 309.207 92.2669 309.266 91.8034 309.204C91.3383 309.143 90.8889 308.962 90.4551 308.661C90.0167 308.356 89.692 308.001 89.4809 307.595C89.2659 307.19 89.1694 306.772 89.1914 306.343C89.2118 305.916 89.3535 305.516 89.6166 305.143C89.7984 304.886 90.025 304.668 90.2965 304.489C90.5657 304.309 90.9264 304.151 91.3786 304.014C91.8291 303.879 92.4183 303.744 93.146 303.61L95.5515 303.129L95.5874 303.079L92.4462 300.896L93.0801 299.998L97.6726 303.189ZM83.9552 304.003L88.8538 297.061L89.91 297.795L85.7529 303.686L85.7937 303.715L88.2285 303.79L87.5205 304.793L84.9807 304.716L83.9552 304.003ZM84.3307 293.747C84.8674 294.123 85.2277 294.584 85.4116 295.129C85.5954 295.675 85.5994 296.285 85.4237 296.961C85.2479 297.637 84.8937 298.353 84.3611 299.108C83.8301 299.86 83.2754 300.433 82.6969 300.826C82.1162 301.217 81.5361 301.42 80.9568 301.435C80.3752 301.449 79.8176 301.27 79.2838 300.899C78.7501 300.528 78.3921 300.069 78.2098 299.521C78.026 298.976 78.0211 298.367 78.1953 297.693C78.3656 297.02 78.7163 296.307 79.2473 295.555C79.7815 294.798 80.3386 294.221 80.9187 293.826C81.4971 293.434 82.0768 293.228 82.6577 293.211C83.237 293.196 83.7947 293.375 84.3307 293.747ZM83.6921 294.652C83.2197 294.324 82.6887 294.297 82.0993 294.571C81.5076 294.843 80.9055 295.414 80.2932 296.281C79.8866 296.857 79.6043 297.387 79.4463 297.87C79.2844 298.354 79.2445 298.777 79.3265 299.141C79.4047 299.505 79.5993 299.795 79.9105 300.011C80.3807 300.338 80.9124 300.364 81.5057 300.089C82.099 299.814 82.7022 299.245 83.3152 298.381C83.7234 297.802 84.0084 297.271 84.1703 296.788C84.3283 296.305 84.3674 295.882 84.2877 295.521C84.2063 295.161 84.0078 294.871 83.6921 294.652ZM77.3671 292.566C76.5324 291.986 76.3323 290.851 76.9116 290.03C77.4976 289.2 78.6407 288.998 79.4753 289.578C80.2908 290.145 80.5005 291.286 79.9145 292.116C79.3352 292.937 78.1826 293.132 77.3671 292.566ZM79.0712 290.151C78.5531 289.791 77.8509 289.915 77.4872 290.43C77.1302 290.936 77.2531 291.633 77.7712 291.993C78.2701 292.34 78.9819 292.222 79.3389 291.717C79.7026 291.201 79.5701 290.497 79.0712 290.151Z" fill="white"/>
<path opacity="0.5" d="M251.113 299.275L246.214 292.333L247.27 291.599L251.427 297.49L251.468 297.462L252.372 295.217L253.08 296.221L252.138 298.562L251.113 299.275ZM241.669 295.35C242.096 295.053 242.537 294.868 242.993 294.794C243.447 294.724 243.877 294.762 244.282 294.908C244.686 295.055 245.026 295.307 245.299 295.666L244.277 296.376C244.042 296.096 243.736 295.943 243.359 295.918C242.983 295.893 242.627 295.997 242.291 296.231C242.023 296.417 241.828 296.643 241.708 296.909C241.587 297.178 241.543 297.462 241.578 297.761C241.611 298.062 241.725 298.351 241.922 298.629C242.121 298.912 242.36 299.121 242.639 299.257C242.918 299.394 243.21 299.45 243.515 299.427C243.818 299.405 244.109 299.299 244.387 299.109C244.598 298.962 244.785 298.778 244.948 298.557C245.11 298.337 245.216 298.122 245.265 297.913L246.329 297.385L248.406 301.156L244.57 303.821L243.936 302.923L246.897 300.866L245.747 298.77L245.707 298.798C245.663 299.024 245.56 299.259 245.397 299.503C245.232 299.749 245.02 299.962 244.761 300.142C244.336 300.437 243.887 300.599 243.414 300.629C242.938 300.659 242.482 300.567 242.045 300.352C241.608 300.14 241.232 299.809 240.917 299.357C240.598 298.909 240.417 298.437 240.375 297.941C240.33 297.446 240.418 296.971 240.638 296.515C240.857 296.063 241.201 295.675 241.669 295.35ZM235.291 299.751C235.831 299.379 236.391 299.2 236.97 299.216C237.549 299.231 238.129 299.436 238.709 299.831C239.289 300.226 239.845 300.801 240.378 301.556C240.909 302.308 241.262 303.021 241.436 303.695C241.608 304.37 241.602 304.981 241.418 305.526C241.232 306.073 240.872 306.532 240.338 306.903C239.804 307.273 239.247 307.45 238.666 307.433C238.087 307.418 237.508 307.214 236.929 306.821C236.35 306.432 235.795 305.861 235.264 305.109C234.73 304.352 234.375 303.635 234.199 302.959C234.025 302.285 234.029 301.675 234.211 301.127C234.395 300.582 234.755 300.123 235.291 299.751ZM235.93 300.656C235.457 300.984 235.25 301.47 235.308 302.113C235.364 302.758 235.698 303.514 236.31 304.382C236.717 304.958 237.122 305.403 237.525 305.715C237.928 306.031 238.315 306.214 238.687 306.261C239.059 306.313 239.4 306.231 239.711 306.015C240.182 305.688 240.388 305.201 240.331 304.554C240.273 303.907 239.941 303.149 239.332 302.282C238.924 301.704 238.518 301.256 238.116 300.94C237.713 300.628 237.326 300.447 236.956 300.397C236.588 300.35 236.246 300.436 235.93 300.656ZM231.791 305.84C230.956 306.42 229.813 306.218 229.234 305.397C228.648 304.567 228.848 303.432 229.682 302.852C230.498 302.285 231.651 302.48 232.237 303.311C232.816 304.132 232.606 305.273 231.791 305.84ZM230.086 303.425C229.568 303.785 229.446 304.482 229.809 304.997C230.166 305.503 230.868 305.627 231.386 305.267C231.885 304.92 232.018 304.217 231.661 303.711C231.297 303.195 230.585 303.078 230.086 303.425Z" fill="white"/>
<path d="M162.472 326.496V318H163.758V325.21H163.808L165.841 323.883V325.111L163.721 326.496H162.472ZM156.952 317.884C157.547 317.884 158.073 317.986 158.529 318.191C158.982 318.395 159.338 318.678 159.595 319.037C159.852 319.397 159.979 319.806 159.977 320.265C159.979 320.625 159.906 320.955 159.757 321.257C159.605 321.561 159.399 321.814 159.139 322.016C158.879 322.22 158.588 322.35 158.267 322.406V322.456C158.691 322.558 159.029 322.785 159.284 323.136C159.538 323.487 159.664 323.891 159.661 324.347C159.664 324.782 159.549 325.169 159.317 325.509C159.082 325.852 158.76 326.122 158.35 326.318C157.941 326.514 157.475 326.612 156.952 326.612C156.435 326.612 155.973 326.513 155.567 326.314C155.157 326.117 154.835 325.848 154.6 325.505C154.365 325.165 154.246 324.779 154.243 324.347C154.246 323.891 154.376 323.487 154.633 323.136C154.891 322.785 155.225 322.558 155.637 322.456V322.406C155.319 322.35 155.033 322.22 154.779 322.016C154.521 321.814 154.317 321.561 154.165 321.257C154.01 320.955 153.931 320.625 153.928 320.265C153.931 319.806 154.061 319.397 154.318 319.037C154.575 318.678 154.932 318.395 155.388 318.191C155.842 317.986 156.363 317.884 156.952 317.884ZM156.952 318.933C156.601 318.933 156.297 318.992 156.04 319.108C155.783 319.227 155.583 319.391 155.442 319.601C155.301 319.814 155.229 320.063 155.227 320.348C155.229 320.644 155.307 320.905 155.459 321.132C155.608 321.359 155.812 321.537 156.069 321.667C156.326 321.797 156.621 321.862 156.952 321.862C157.287 321.862 157.584 321.797 157.844 321.667C158.104 321.537 158.309 321.359 158.458 321.132C158.608 320.905 158.681 320.644 158.678 320.348C158.681 320.063 158.613 319.814 158.475 319.601C158.334 319.391 158.133 319.227 157.873 319.108C157.613 318.992 157.306 318.933 156.952 318.933ZM156.952 322.887C156.67 322.887 156.42 322.944 156.202 323.057C155.983 323.17 155.812 323.328 155.687 323.53C155.56 323.732 155.495 323.968 155.492 324.239C155.495 324.505 155.558 324.737 155.683 324.936C155.805 325.136 155.975 325.289 156.193 325.397C156.412 325.508 156.665 325.563 156.952 325.563C157.246 325.563 157.503 325.508 157.724 325.397C157.943 325.289 158.113 325.136 158.234 324.936C158.356 324.737 158.415 324.505 158.413 324.239C158.415 323.968 158.355 323.732 158.23 323.53C158.106 323.328 157.934 323.17 157.716 323.057C157.494 322.944 157.24 322.887 156.952 322.887ZM149.133 317.859C149.789 317.862 150.349 318.035 150.814 318.378C151.278 318.72 151.634 319.22 151.88 319.875C152.126 320.531 152.249 321.32 152.249 322.244C152.249 323.165 152.126 323.952 151.88 324.605C151.631 325.257 151.274 325.755 150.809 326.098C150.342 326.441 149.783 326.612 149.133 326.612C148.484 326.612 147.926 326.44 147.462 326.094C146.997 325.751 146.642 325.253 146.395 324.6C146.147 323.95 146.022 323.165 146.022 322.244C146.022 321.317 146.145 320.526 146.391 319.871C146.637 319.218 146.993 318.719 147.457 318.373C147.922 318.03 148.481 317.859 149.133 317.859ZM149.133 318.967C148.558 318.967 148.109 319.247 147.785 319.809C147.459 320.37 147.296 321.182 147.296 322.244C147.296 322.949 147.37 323.545 147.52 324.032C147.666 324.522 147.878 324.892 148.154 325.144C148.428 325.398 148.755 325.525 149.133 325.525C149.706 325.525 150.155 325.243 150.482 324.679C150.808 324.115 150.973 323.303 150.975 322.244C150.975 321.536 150.902 320.937 150.756 320.448C150.606 319.961 150.395 319.592 150.121 319.34C149.847 319.091 149.518 318.967 149.133 318.967ZM142.762 320.862C141.746 320.862 140.928 320.044 140.928 319.04C140.928 318.023 141.746 317.206 142.762 317.206C143.755 317.206 144.585 318.023 144.585 319.04C144.585 320.044 143.755 320.862 142.762 320.862ZM142.762 317.907C142.132 317.907 141.629 318.409 141.629 319.04C141.629 319.659 142.132 320.161 142.762 320.161C143.37 320.161 143.884 319.659 143.884 319.04C143.884 318.409 143.37 317.907 142.762 317.907Z" fill="white"/>
<path d="M13 171.958L12.0707 171.958L9.09205 169.083C8.76846 168.777 8.48498 168.523 8.2416 168.324C7.99545 168.122 7.76175 167.972 7.54049 167.872C7.31923 167.773 7.08415 167.723 6.83523 167.723C6.55313 167.723 6.30975 167.789 6.10509 167.922C5.89766 168.055 5.73863 168.236 5.628 168.465C5.51461 168.695 5.45791 168.954 5.45791 169.241C5.45791 169.545 5.52014 169.811 5.6446 170.038C5.76905 170.264 5.94468 170.439 6.17146 170.56C6.39825 170.682 6.66376 170.743 6.96799 170.743L6.96799 171.967C6.4508 171.967 5.99861 171.848 5.61141 171.61C5.22421 171.372 4.92413 171.046 4.71117 170.631C4.49544 170.216 4.38758 169.745 4.38758 169.216C4.38758 168.682 4.49406 168.212 4.70702 167.806C4.91721 167.396 5.20485 167.077 5.56992 166.847C5.93223 166.618 6.34156 166.503 6.7979 166.503C7.11319 166.503 7.42156 166.563 7.72303 166.681C8.02449 166.798 8.36052 167.001 8.73113 167.291C9.09897 167.582 9.54563 167.986 10.0711 168.503L11.8384 170.191L11.9006 170.191L11.9006 166.366L13 166.366L13 171.958ZM13 164.157L5.66534 160.448L5.60311 160.448L5.60311 164.738L4.50374 164.738L4.50374 159.121L5.64045 159.121L13 162.817L13 164.157ZM13.1411 154.552C13.1383 155.208 12.9654 155.768 12.6225 156.232C12.2795 156.697 11.7803 157.052 11.1248 157.299C10.4694 157.545 9.67977 157.668 8.75602 157.668C7.83504 157.668 7.04819 157.545 6.39549 157.299C5.74278 157.05 5.24495 156.693 4.902 156.228C4.55906 155.761 4.38758 155.202 4.38758 154.552C4.38758 153.902 4.56044 153.345 4.90615 152.88C5.2491 152.416 5.74693 152.06 6.39963 151.814C7.04958 151.565 7.83504 151.441 8.75602 151.441C9.68253 151.441 10.4735 151.564 11.129 151.81C11.7817 152.056 12.2809 152.412 12.6266 152.876C12.9696 153.341 13.1411 153.9 13.1411 154.552ZM12.0334 154.552C12.0334 153.977 11.7527 153.528 11.1912 153.204C10.6298 152.878 9.81805 152.714 8.75602 152.714C8.05076 152.714 7.45475 152.789 6.96799 152.938C6.47846 153.085 6.10785 153.297 5.85617 153.573C5.60173 153.847 5.4745 154.173 5.4745 154.552C5.4745 155.125 5.75661 155.574 6.32081 155.901C6.88502 156.227 7.69675 156.391 8.75602 156.394C9.46404 156.394 10.0628 156.321 10.5523 156.174C11.0391 156.025 11.4083 155.813 11.66 155.54C11.9089 155.266 12.0334 154.937 12.0334 154.552ZM10.1378 148.181C10.1378 147.165 10.9556 146.347 11.9603 146.347C12.9766 146.347 13.7944 147.165 13.7944 148.181C13.7944 149.174 12.9766 150.004 11.9603 150.004C10.9556 150.004 10.1378 149.174 10.1378 148.181ZM13.0935 148.181C13.0935 147.55 12.5911 147.048 11.9603 147.048C11.3411 147.048 10.8388 147.55 10.8388 148.181C10.8388 148.789 11.3411 149.303 11.9603 149.303C12.5911 149.303 13.0935 148.789 13.0935 148.181Z" fill="white"/>
<path d="M326.612 161.795C326.61 162.174 326.541 162.547 326.405 162.915C326.269 163.283 326.048 163.615 325.741 163.911C325.434 164.209 325.019 164.447 324.497 164.624C323.977 164.804 323.33 164.895 322.555 164.898C321.811 164.898 321.149 164.823 320.568 164.674C319.99 164.525 319.502 164.31 319.104 164.031C318.705 163.754 318.402 163.418 318.195 163.023C317.988 162.627 317.884 162.182 317.884 161.687C317.884 161.181 317.983 160.731 318.183 160.339C318.382 159.946 318.657 159.626 319.008 159.38C319.362 159.134 319.769 158.981 320.228 158.92L320.228 160.185C319.863 160.268 319.567 160.437 319.34 160.691C319.116 160.948 319.004 161.28 319.004 161.687C319.004 162.309 319.275 162.795 319.817 163.143C320.362 163.492 321.122 163.667 322.099 163.67L322.099 163.604C321.861 163.46 321.656 163.28 321.485 163.064C321.313 162.851 321.181 162.612 321.087 162.347C320.992 162.081 320.945 161.798 320.945 161.496C320.945 161.007 321.066 160.561 321.306 160.16C321.547 159.759 321.878 159.44 322.298 159.202C322.718 158.964 323.198 158.845 323.737 158.845C324.274 158.845 324.761 158.967 325.198 159.21C325.635 159.456 325.98 159.799 326.235 160.239C326.492 160.682 326.618 161.2 326.612 161.795ZM325.534 161.799C325.534 161.475 325.454 161.184 325.293 160.924C325.136 160.666 324.921 160.463 324.65 160.314C324.382 160.164 324.083 160.09 323.754 160.09C323.425 160.09 323.126 160.162 322.858 160.305C322.592 160.452 322.381 160.651 322.223 160.903C322.068 161.157 321.991 161.448 321.991 161.774C321.991 162.017 322.038 162.244 322.132 162.454C322.226 162.665 322.356 162.849 322.522 163.006C322.691 163.164 322.881 163.287 323.094 163.375C323.307 163.464 323.531 163.508 323.767 163.508C324.079 163.508 324.369 163.433 324.638 163.284C324.906 163.138 325.122 162.936 325.285 162.678C325.451 162.421 325.534 162.128 325.534 161.799ZM317.859 169.705C317.862 169.049 318.035 168.489 318.378 168.025C318.72 167.56 319.22 167.205 319.875 166.959C320.531 166.712 321.32 166.589 322.244 166.589C323.165 166.589 323.952 166.712 324.605 166.959C325.257 167.208 325.755 167.564 326.098 168.029C326.441 168.496 326.612 169.055 326.612 169.705C326.612 170.355 326.44 170.912 326.094 171.377C325.751 171.841 325.253 172.197 324.6 172.443C323.95 172.692 323.165 172.816 322.244 172.816C321.317 172.816 320.526 172.693 319.871 172.447C319.218 172.201 318.719 171.846 318.373 171.381C318.03 170.916 317.859 170.358 317.859 169.705ZM318.967 169.705C318.967 170.28 319.247 170.73 319.809 171.053C320.37 171.38 321.182 171.543 322.244 171.543C322.949 171.543 323.545 171.468 324.032 171.319C324.522 171.172 324.892 170.961 325.144 170.684C325.398 170.41 325.525 170.084 325.525 169.705C325.525 169.132 325.243 168.683 324.679 168.357C324.115 168.03 323.303 167.866 322.244 167.863C321.536 167.863 320.937 167.936 320.448 168.083C319.961 168.232 319.592 168.444 319.34 168.718C319.091 168.991 318.967 169.321 318.967 169.705ZM320.862 176.076C320.862 177.092 320.044 177.91 319.04 177.91C318.023 177.91 317.206 177.092 317.206 176.076C317.206 175.083 318.023 174.254 319.04 174.254C320.044 174.254 320.862 175.083 320.862 176.076ZM317.907 176.076C317.907 176.707 318.409 177.209 319.04 177.209C319.659 177.209 320.161 176.707 320.161 176.076C320.161 175.469 319.659 174.954 319.04 174.954C318.409 174.954 317.907 175.469 317.907 176.076Z" fill="white"/>
<path d="M274.853 157.257V166.906H273.872V157.257H274.853ZM276.512 161.474V162.689H274.456V161.474H276.512ZM276.897 158.448V165.796H275.928L275.928 158.448H276.897ZM279.526 158.448V165.726H278.556V159.663H276.302V158.448H279.526ZM273.206 162.058C273.206 164.348 272.505 165.738 271.267 165.738C270.028 165.738 269.327 164.348 269.327 162.058C269.327 159.768 270.028 158.378 271.267 158.378C272.505 158.378 273.206 159.768 273.206 162.058ZM272.271 162.058C272.271 160.493 271.921 159.616 271.267 159.616C270.612 159.616 270.274 160.493 270.274 162.058C270.274 163.623 270.612 164.5 271.267 164.5C271.921 164.5 272.271 163.623 272.271 162.058Z" fill="white"/>
<path d="M161.712 54.1565H162.927V55.8972H161.712V54.1565ZM157.507 53.4556H167.156V54.4369H157.507V53.4556ZM158.581 55.5233H165.976V58.9696H164.761V56.5047H158.581V55.5233ZM158.768 48.549H159.972V49.6354H164.703V48.549H165.918V52.6028H158.768V48.549ZM159.972 50.57V51.6331H164.703V50.57H159.972Z" fill="white"/>
<path d="M165.088 284.993H163.861V278.965H165.088V284.993ZM164.188 282.633H162.354V281.629H164.188V282.633ZM170.684 278.428H163.861V274.444H170.684V278.428ZM165.053 277.458H169.48V275.425H165.053V277.458ZM171.723 284.467H170.497V280.157H171.723V284.467ZM171.723 280.671H170.859C169.364 280.671 167.775 280.776 166.057 281.115L165.917 280.122C167.681 279.759 169.305 279.654 170.859 279.654H171.723V280.671Z" fill="white"/>
<path d="M49.182 168.813V165.916H50.175V168.813H49.182ZM46.5651 171.535V170.542H48.3175C50.8292 170.542 53.2124 171.64 54.1586 173.475L53.1773 174.246C52.3712 172.563 50.3151 171.535 48.3175 171.535H46.5651ZM46.5651 171.29V170.309H48.3175C50.2918 170.309 52.2311 169.292 52.9904 167.645L53.9717 168.381C53.0488 170.227 50.7941 171.29 48.3175 171.29H46.5651ZM45.6773 166.524V165.309H56.3783V166.524H45.6773Z" fill="white"/>
<path d="M311.53 164.283V159.416H287.192V164.283H311.53Z" fill="#B3F4F9"/>
<path d="M310.603 149.026L310.094 144.185L297.992 145.457L298.5 150.298L310.603 149.026Z" fill="#B3F4F9"/>
<path d="M307.073 129.187L308.085 133.949L296.182 136.479L295.17 131.717L307.073 129.187Z" fill="#B3F4F9"/>
<path d="M304.007 119.217L302.502 114.588L290.929 118.348L292.433 122.978L304.007 119.217Z" fill="#B3F4F9"/>
<path d="M296.43 100.546L298.41 104.993L287.293 109.943L285.313 105.496L296.43 100.546Z" fill="#B3F4F9"/>
<path d="M291.357 91.4319L288.924 87.2164L267.846 99.3855L270.28 103.601L291.357 91.4319Z" fill="#B3F4F9"/>
<path d="M280.064 74.7435L282.925 78.6815L273.08 85.8343L270.219 81.8963L280.064 74.7435Z" fill="#B3F4F9"/>
<path d="M273.207 66.8832L269.95 63.2659L260.907 71.4086L264.164 75.026L273.207 66.8832Z" fill="#B3F4F9"/>
<path d="M258.692 52.9076L262.309 56.1646L254.166 65.2081L250.549 61.951L258.692 52.9076Z" fill="#B3F4F9"/>
<path d="M250.35 46.6448L246.412 43.7837L239.259 53.6287L243.197 56.4898L250.35 46.6448Z" fill="#B3F4F9"/>
<path d="M233.246 35.9923L237.462 38.4261L225.292 59.5037L221.077 57.0698L233.246 35.9923Z" fill="#B3F4F9"/>
<path d="M223.784 31.6009L219.337 29.621L214.388 40.7381L218.835 42.7179L223.784 31.6009Z" fill="#B3F4F9"/>
<path d="M204.839 24.7375L209.468 26.2417L205.708 37.8152L201.079 36.311L204.839 24.7375Z" fill="#B3F4F9"/>
<path d="M194.671 22.4087L189.91 21.3966L187.38 33.2998L192.141 34.3119L194.671 22.4087Z" fill="#B3F4F9"/>
<path d="M174.713 19.6348L179.554 20.1437L178.282 32.2461L173.441 31.7373L174.713 19.6348Z" fill="#B3F4F9"/>
<path d="M164.283 19.4707H159.416V43.8089H164.283V19.4707Z" fill="#FF0000"/>
<path d="M144.185 20.9064L149.026 20.3976L150.298 32.5001L145.457 33.0089L144.185 20.9064Z" fill="#B3F4F9"/>
<path d="M133.949 22.9151L129.188 23.9272L131.718 35.8304L136.479 34.8183L133.949 22.9151Z" fill="#B3F4F9"/>
<path d="M114.588 28.498L119.218 26.9938L122.978 38.5673L118.349 40.0715L114.588 28.498Z" fill="#B3F4F9"/>
<path d="M104.993 32.5908L100.546 34.5707L105.496 45.6877L109.942 43.7079L104.993 32.5908Z" fill="#B3F4F9"/>
<path d="M87.2166 42.0769L91.4321 39.643L103.601 60.7206L99.3857 63.1544L87.2166 42.0769Z" fill="#B3F4F9"/>
<path d="M78.6817 48.0752L74.7437 50.9363L81.8966 60.7813L85.8346 57.9202L78.6817 48.0752Z" fill="#B3F4F9"/>
<path d="M63.2661 61.0503L66.8835 57.7932L75.0262 66.8366L71.4088 70.0937L63.2661 61.0503Z" fill="#B3F4F9"/>
<path d="M56.1649 68.6914L52.9078 72.3088L61.9512 80.4515L65.2083 76.8341L56.1649 68.6914Z" fill="#B3F4F9"/>
<path d="M43.7839 84.5886L46.6451 80.6505L56.4901 87.8034L53.6289 91.7414L43.7839 84.5886Z" fill="#B3F4F9"/>
<path d="M38.4264 93.5389L35.9925 97.7544L57.0701 109.924L59.5039 105.708L38.4264 93.5389Z" fill="#B3F4F9"/>
<path d="M29.6213 111.663L31.6011 107.216L42.7182 112.166L40.7383 116.613L29.6213 111.663Z" fill="#B3F4F9"/>
<path d="M26.242 121.532L24.7377 126.161L36.3113 129.922L37.8154 125.292L26.242 121.532Z" fill="#B3F4F9"/>
<path d="M21.3969 141.091L22.4089 136.329L34.3121 138.859L33.3001 143.621L21.3969 141.091Z" fill="#B3F4F9"/>
<path d="M20.1439 151.446L19.6351 156.287L31.7375 157.559L32.2464 152.718L20.1439 151.446Z" fill="#B3F4F9"/>
<path d="M19.4709 170.976V166.109H43.8092V170.976H19.4709Z" fill="#B3F4F9"/>
<path d="M20.3979 181.974L20.9067 186.815L33.0091 185.543L32.5003 180.702L20.3979 181.974Z" fill="#B3F4F9"/>
<path d="M23.9274 201.813L22.9154 197.052L34.8186 194.521L35.8306 199.283L23.9274 201.813Z" fill="#B3F4F9"/>
<path d="M26.9941 211.783L28.4983 216.412L40.0718 212.652L38.5676 208.022L26.9941 211.783Z" fill="#B3F4F9"/>
<path d="M34.5709 230.454L32.5911 226.007L43.7081 221.057L45.688 225.504L34.5709 230.454Z" fill="#B3F4F9"/>
<path d="M39.6433 239.568L42.0771 243.784L63.1546 231.615L60.7208 227.399L39.6433 239.568Z" fill="#B3F4F9"/>
<path d="M50.9366 256.257L48.0754 252.319L57.9204 245.166L60.7816 249.104L50.9366 256.257Z" fill="#B3F4F9"/>
<path d="M57.7934 264.117L61.0505 267.734L70.0939 259.592L66.8368 255.974L57.7934 264.117Z" fill="#B3F4F9"/>
<path d="M72.309 278.093L68.6916 274.836L76.8344 265.792L80.4517 269.049L72.309 278.093Z" fill="#B3F4F9"/>
<path d="M80.6508 284.355L84.5888 287.217L91.7416 277.372L87.8036 274.51L80.6508 284.355Z" fill="#B3F4F9"/>
<path d="M97.7547 295.008L93.5392 292.574L105.708 271.497L109.924 273.93L97.7547 295.008Z" fill="#B3F4F9"/>
<path d="M107.216 299.399L111.663 301.379L116.613 290.262L112.166 288.282L107.216 299.399Z" fill="#B3F4F9"/>
<path d="M126.162 306.263L121.532 304.759L125.293 293.185L129.922 294.689L126.162 306.263Z" fill="#B3F4F9"/>
<path d="M136.33 308.592L141.091 309.604L143.621 297.7L138.86 296.688L136.33 308.592Z" fill="#B3F4F9"/>
<path d="M156.287 311.365L151.446 310.857L152.718 298.754L157.559 299.263L156.287 311.365Z" fill="#B3F4F9"/>
<path d="M166.717 311.53H171.585V287.191H166.717V311.53Z" fill="#3D5AF1"/>
<path d="M186.816 310.094L181.975 310.603L180.703 298.5L185.544 297.991L186.816 310.094Z" fill="#B3F4F9"/>
<path d="M197.052 308.085L201.813 307.073L199.283 295.17L194.522 296.182L197.052 308.085Z" fill="#B3F4F9"/>
<path d="M216.412 302.502L211.783 304.006L208.023 292.433L212.652 290.929L216.412 302.502Z" fill="#B3F4F9"/>
<path d="M226.008 298.409L230.455 296.43L225.505 285.313L221.058 287.292L226.008 298.409Z" fill="#B3F4F9"/>
<path d="M243.784 288.923L239.569 291.357L227.399 270.28L231.615 267.846L243.784 288.923Z" fill="#B3F4F9"/>
<path d="M252.319 282.925L256.257 280.064L249.104 270.219L245.166 273.08L252.319 282.925Z" fill="#B3F4F9"/>
<path d="M267.735 269.95L264.117 273.207L255.975 264.164L259.592 260.907L267.735 269.95Z" fill="#B3F4F9"/>
<path d="M274.836 262.309L278.093 258.691L269.05 250.549L265.792 254.166L274.836 262.309Z" fill="#B3F4F9"/>
<path d="M287.217 246.412L284.356 250.35L274.511 243.197L277.372 239.259L287.217 246.412Z" fill="#B3F4F9"/>
<path d="M292.574 237.461L295.008 233.246L273.931 221.077L271.497 225.292L292.574 237.461Z" fill="#B3F4F9"/>
<path d="M301.379 219.337L299.4 223.784L288.283 218.834L290.262 214.388L301.379 219.337Z" fill="#B3F4F9"/>
<path d="M304.759 209.468L306.263 204.839L294.689 201.078L293.185 205.708L304.759 209.468Z" fill="#B3F4F9"/>
<path d="M309.604 189.91L308.592 194.671L296.689 192.141L297.701 187.38L309.604 189.91Z" fill="#B3F4F9"/>
<path d="M310.857 179.554L311.366 174.713L299.263 173.441L298.754 178.282L310.857 179.554Z" fill="#B3F4F9"/>
</svg>
