<svg width="333" height="426" viewBox="0 0 333 426" fill="none" xmlns="http://www.w3.org/2000/svg">
<g filter="url(#filter0_f_202_229)">
<rect x="2.5" y="2.5" width="328" height="420.64" stroke="url(#paint0_linear_202_229)" stroke-width="3"/>
</g>
<circle cx="166.77" cy="169.064" r="2.83833" fill="#D9D9D9"/>
<path d="M180.607 178.654L173.258 218.156H166.384H159.507L152.162 179.873V166.437V154.91C152.162 153.951 152.336 153 152.677 152.104L166.384 116.023L180.092 152.104C180.433 153 180.607 153.951 180.607 154.91V166.437V178.654Z" stroke="#1AEFFD" stroke-width="1.43664"/>
<g style="mix-blend-mode:hard-light" filter="url(#filter1_f_202_229)">
<path d="M180.859 178.821L173.467 218.551H166.384H159.3L151.91 180.041V166.581V155.054C151.91 154.064 152.09 153.083 152.442 152.158L166.384 115.458L180.327 152.158C180.678 153.083 180.859 154.064 180.859 155.054V166.581V178.821Z" stroke="#00A8A8" stroke-width="0.933816"/>
</g>
<g style="mix-blend-mode:hard-light" filter="url(#filter2_f_202_229)">
<path d="M180.715 178.808L173.347 218.408H166.384H159.418L152.054 180.027V166.581V155.054C152.054 154.082 152.231 153.118 152.576 152.209L166.384 115.863L180.193 152.209C180.538 153.118 180.715 154.082 180.715 155.054V166.581V178.808Z" stroke="#00A8A8" stroke-width="1.22114"/>
</g>
<g style="mix-blend-mode:hard-light" filter="url(#filter3_ddi_202_229)">
<path d="M180.859 178.821L173.467 218.551H166.384H159.3L151.91 180.041V166.581V155.054C151.91 154.064 152.09 153.083 152.442 152.158L166.384 115.458L180.327 152.158C180.678 153.083 180.859 154.064 180.859 155.054V166.581V178.821Z" stroke="#33E9C6" stroke-opacity="0.2" stroke-width="0.933816"/>
</g>
<g filter="url(#filter4_f_202_229)">
<path d="M181.038 178.838L173.616 218.731H166.384H159.151L151.731 180.058V166.581V155.054C151.731 154.043 151.915 153.04 152.274 152.095L166.384 114.953L180.495 152.095C180.854 153.04 181.038 154.043 181.038 155.054V166.581V178.838Z" stroke="#33E9E9" stroke-width="0.574656"/>
</g>
<g filter="url(#filter5_f_202_229)">
<path d="M181.182 178.851L173.736 218.875H166.384H159.033L151.587 180.072V166.581V155.054C151.587 154.025 151.774 153.005 152.14 152.044L166.384 114.548L180.629 152.044C180.995 153.005 181.182 154.025 181.182 155.054V166.581V178.851Z" stroke="white" stroke-width="0.287328"/>
</g>
<circle cx="166.77" cy="169.064" r="2.83833" fill="#D9D9D9"/>
<g filter="url(#filter6_f_202_229)">
<path d="M181.182 178.851L173.736 218.875H166.384H159.033L151.587 180.072V166.581V155.054C151.587 154.025 151.774 153.005 152.14 152.044L166.384 114.548L180.629 152.044C180.995 153.005 181.182 154.025 181.182 155.054V166.581V178.851Z" stroke="white" stroke-width="0.287328"/>
</g>
<circle cx="166.77" cy="169.064" r="2.83833" fill="#D9D9D9"/>
<path d="M180.607 178.654L173.258 218.156H166.384H159.507L152.162 179.873V166.437V154.91C152.162 153.951 152.336 153 152.677 152.104L166.384 116.023L180.092 152.104C180.433 153 180.607 153.951 180.607 154.91V166.437V178.654Z" stroke="#1AEFFD" stroke-width="1.43664"/>
<g style="mix-blend-mode:hard-light" filter="url(#filter7_f_202_229)">
<path d="M180.859 178.821L173.467 218.551H166.384H159.3L151.91 180.041V166.581V155.054C151.91 154.064 152.09 153.083 152.442 152.158L166.384 115.458L180.327 152.158C180.678 153.083 180.859 154.064 180.859 155.054V166.581V178.821Z" stroke="#00A8A8" stroke-width="0.933816"/>
</g>
<g style="mix-blend-mode:hard-light" filter="url(#filter8_f_202_229)">
<path d="M180.715 178.808L173.347 218.408H166.384H159.418L152.054 180.027V166.581V155.054C152.054 154.082 152.231 153.118 152.576 152.209L166.384 115.863L180.193 152.209C180.538 153.118 180.715 154.082 180.715 155.054V166.581V178.808Z" stroke="#00A8A8" stroke-width="1.22114"/>
</g>
<g style="mix-blend-mode:hard-light" filter="url(#filter9_ddi_202_229)">
<path d="M180.859 178.821L173.467 218.551H166.384H159.3L151.91 180.041V166.581V155.054C151.91 154.064 152.09 153.083 152.442 152.158L166.384 115.458L180.327 152.158C180.678 153.083 180.859 154.064 180.859 155.054V166.581V178.821Z" stroke="#33E9C6" stroke-opacity="0.2" stroke-width="0.933816"/>
</g>
<g filter="url(#filter10_f_202_229)">
<path d="M181.038 178.838L173.616 218.731H166.384H159.151L151.731 180.058V166.581V155.054C151.731 154.043 151.915 153.04 152.274 152.095L166.384 114.953L180.495 152.095C180.854 153.04 181.038 154.043 181.038 155.054V166.581V178.838Z" stroke="#33E9E9" stroke-width="0.574656"/>
</g>
<g filter="url(#filter11_f_202_229)">
<path d="M181.182 178.851L173.736 218.875H166.384H159.033L151.587 180.072V166.581V155.054C151.587 154.025 151.774 153.005 152.14 152.044L166.384 114.548L180.629 152.044C180.995 153.005 181.182 154.025 181.182 155.054V166.581V178.851Z" stroke="white" stroke-width="0.287328"/>
</g>
<path d="M117.233 367.28C117.485 367.596 117.801 368.014 118.18 368.536C118.575 369.041 118.978 369.609 119.388 370.241C119.799 370.857 120.201 371.504 120.596 372.183C121.007 372.862 121.354 373.518 121.638 374.149H119.128C118.812 373.549 118.464 372.941 118.085 372.325C117.722 371.71 117.351 371.125 116.972 370.573C116.593 370.004 116.214 369.475 115.835 368.986C115.472 368.496 115.14 368.07 114.84 367.706C114.635 367.722 114.422 367.73 114.201 367.73C113.995 367.73 113.782 367.73 113.561 367.73H111.5V374.149H109.203V357.971C109.85 357.813 110.569 357.71 111.358 357.663C112.164 357.6 112.898 357.568 113.561 357.568C115.867 357.568 117.62 358.003 118.82 358.871C120.036 359.74 120.644 361.035 120.644 362.756C120.644 363.845 120.351 364.777 119.767 365.551C119.199 366.325 118.354 366.901 117.233 367.28ZM113.751 359.582C112.772 359.582 112.021 359.605 111.5 359.653V365.835H113.135C113.924 365.835 114.635 365.796 115.267 365.717C115.898 365.638 116.427 365.488 116.854 365.267C117.296 365.046 117.635 364.738 117.872 364.343C118.109 363.932 118.227 363.395 118.227 362.732C118.227 362.116 118.109 361.603 117.872 361.192C117.635 360.782 117.312 360.458 116.901 360.221C116.506 359.984 116.032 359.819 115.48 359.724C114.943 359.629 114.366 359.582 113.751 359.582ZM124.1 374.149V357.734H134.119V359.7H126.397V364.58H133.267V366.498H126.397V372.183H134.712V374.149H124.1ZM148.992 374.149C148.724 373.439 148.471 372.744 148.234 372.065C147.998 371.37 147.753 370.667 147.5 369.957H140.062L138.57 374.149H136.178C136.809 372.412 137.401 370.81 137.954 369.341C138.507 367.856 139.044 366.451 139.565 365.125C140.102 363.798 140.631 362.535 141.152 361.335C141.673 360.119 142.218 358.918 142.786 357.734H144.895C145.463 358.918 146.008 360.119 146.529 361.335C147.05 362.535 147.571 363.798 148.092 365.125C148.629 366.451 149.174 367.856 149.727 369.341C150.279 370.81 150.872 372.412 151.503 374.149H148.992ZM146.837 368.062C146.332 366.688 145.826 365.361 145.321 364.082C144.831 362.787 144.318 361.548 143.781 360.363C143.229 361.548 142.7 362.787 142.194 364.082C141.705 365.361 141.215 366.688 140.726 368.062H146.837ZM163.61 372.16V374.149H153.732V357.734H156.03V372.16H163.61ZM173.961 372.87C173.961 373.297 173.819 373.668 173.534 373.984C173.25 374.299 172.863 374.457 172.374 374.457C171.884 374.457 171.497 374.299 171.213 373.984C170.929 373.668 170.787 373.297 170.787 372.87C170.787 372.444 170.929 372.073 171.213 371.757C171.497 371.441 171.884 371.283 172.374 371.283C172.863 371.283 173.25 371.441 173.534 371.757C173.819 372.073 173.961 372.444 173.961 372.87ZM173.961 363.419C173.961 363.845 173.819 364.217 173.534 364.532C173.25 364.848 172.863 365.006 172.374 365.006C171.884 365.006 171.497 364.848 171.213 364.532C170.929 364.217 170.787 363.845 170.787 363.419C170.787 362.993 170.929 362.622 171.213 362.306C171.497 361.99 171.884 361.832 172.374 361.832C172.863 361.832 173.25 361.99 173.534 362.306C173.819 362.622 173.961 362.993 173.961 363.419Z" fill="white"/>
<path d="M104.515 410.208C104.515 411.629 104.294 412.869 103.852 413.927C103.41 414.969 102.786 415.838 101.981 416.533C101.175 417.212 100.212 417.725 99.0908 418.072C97.9696 418.404 96.7378 418.57 95.3956 418.57C94.7323 418.57 93.998 418.538 93.1926 418.475C92.4031 418.428 91.6846 418.325 91.0371 418.167V402.249C91.6846 402.091 92.4031 401.989 93.1926 401.941C93.998 401.878 94.7323 401.847 95.3956 401.847C96.7378 401.847 97.9696 402.02 99.0908 402.368C100.212 402.699 101.175 403.213 101.981 403.907C102.786 404.586 103.41 405.455 103.852 406.513C104.294 407.555 104.515 408.787 104.515 410.208ZM95.5851 416.556C97.7643 416.556 99.3908 416.004 100.465 414.898C101.538 413.777 102.075 412.214 102.075 410.208C102.075 408.203 101.538 406.647 100.465 405.542C99.3908 404.421 97.7643 403.86 95.5851 403.86C94.9376 403.86 94.4323 403.868 94.0691 403.884C93.7217 403.9 93.4769 403.915 93.3348 403.931V416.485C93.4769 416.501 93.7217 416.517 94.0691 416.533C94.4323 416.549 94.9376 416.556 95.5851 416.556ZM107.924 402.012H110.221V418.428H107.924V402.012ZM118.099 416.793C120.499 416.793 121.699 415.972 121.699 414.33C121.699 413.825 121.588 413.398 121.367 413.051C121.162 412.688 120.878 412.38 120.515 412.127C120.151 411.858 119.733 411.629 119.259 411.44C118.801 411.25 118.312 411.061 117.791 410.871C117.191 410.666 116.622 410.437 116.085 410.185C115.548 409.916 115.082 409.608 114.688 409.261C114.293 408.898 113.977 408.471 113.74 407.982C113.519 407.492 113.408 406.9 113.408 406.205C113.408 404.768 113.898 403.647 114.877 402.842C115.856 402.036 117.206 401.633 118.928 401.633C119.922 401.633 120.823 401.744 121.628 401.965C122.449 402.17 123.049 402.399 123.428 402.652L122.694 404.523C122.362 404.318 121.865 404.121 121.202 403.931C120.554 403.726 119.796 403.623 118.928 403.623C118.485 403.623 118.075 403.671 117.696 403.765C117.317 403.86 116.985 404.002 116.701 404.192C116.417 404.381 116.188 404.626 116.014 404.926C115.856 405.21 115.777 405.55 115.777 405.945C115.777 406.387 115.864 406.758 116.038 407.058C116.211 407.358 116.456 407.626 116.772 407.863C117.088 408.084 117.451 408.29 117.862 408.479C118.288 408.669 118.754 408.858 119.259 409.048C119.97 409.332 120.617 409.616 121.202 409.9C121.802 410.185 122.315 410.524 122.741 410.919C123.183 411.314 123.523 411.787 123.76 412.34C123.997 412.877 124.115 413.532 124.115 414.306C124.115 415.743 123.586 416.849 122.528 417.622C121.486 418.396 120.009 418.783 118.099 418.783C117.451 418.783 116.851 418.736 116.298 418.641C115.761 418.562 115.28 418.467 114.853 418.357C114.427 418.23 114.056 418.104 113.74 417.978C113.44 417.836 113.203 417.717 113.029 417.622L113.716 415.727C114.08 415.933 114.632 416.162 115.374 416.414C116.117 416.667 117.025 416.793 118.099 416.793ZM126.892 402.012H129.19V418.428H126.892V402.012ZM141.283 411.558C141.536 411.874 141.852 412.293 142.231 412.814C142.625 413.319 143.028 413.888 143.439 414.519C143.849 415.135 144.252 415.783 144.647 416.462C145.057 417.141 145.405 417.796 145.689 418.428H143.178C142.862 417.828 142.515 417.22 142.136 416.604C141.773 415.988 141.402 415.404 141.023 414.851C140.644 414.282 140.265 413.753 139.886 413.264C139.522 412.774 139.191 412.348 138.891 411.985C138.685 412.001 138.472 412.008 138.251 412.008C138.046 412.008 137.833 412.008 137.612 412.008H135.551V418.428H133.253V402.249C133.901 402.091 134.619 401.989 135.409 401.941C136.214 401.878 136.948 401.847 137.612 401.847C139.917 401.847 141.67 402.281 142.87 403.149C144.086 404.018 144.694 405.313 144.694 407.034C144.694 408.124 144.402 409.055 143.818 409.829C143.249 410.603 142.404 411.179 141.283 411.558ZM137.801 403.86C136.822 403.86 136.072 403.884 135.551 403.931V410.114H137.185C137.975 410.114 138.685 410.074 139.317 409.995C139.949 409.916 140.478 409.766 140.904 409.545C141.346 409.324 141.686 409.016 141.923 408.621C142.16 408.211 142.278 407.674 142.278 407.01C142.278 406.395 142.16 405.881 141.923 405.471C141.686 405.06 141.362 404.736 140.952 404.5C140.557 404.263 140.083 404.097 139.53 404.002C138.993 403.907 138.417 403.86 137.801 403.86ZM148.15 418.428V402.012H158.17V403.978H150.448V408.858H157.317V410.777H150.448V416.462H158.762V418.428H148.15ZM169.628 417.149C169.628 417.575 169.486 417.946 169.202 418.262C168.918 418.578 168.531 418.736 168.041 418.736C167.552 418.736 167.165 418.578 166.881 418.262C166.596 417.946 166.454 417.575 166.454 417.149C166.454 416.722 166.596 416.351 166.881 416.035C167.165 415.719 167.552 415.562 168.041 415.562C168.531 415.562 168.918 415.719 169.202 416.035C169.486 416.351 169.628 416.722 169.628 417.149ZM169.628 407.697C169.628 408.124 169.486 408.495 169.202 408.811C168.918 409.127 168.531 409.284 168.041 409.284C167.552 409.284 167.165 409.127 166.881 408.811C166.596 408.495 166.454 408.124 166.454 407.697C166.454 407.271 166.596 406.9 166.881 406.584C167.165 406.268 167.552 406.11 168.041 406.11C168.531 406.11 168.918 406.268 169.202 406.584C169.486 406.9 169.628 407.271 169.628 407.697Z" fill="white"/>
<g filter="url(#filter12_f_202_229)">
<path d="M181.182 178.851L173.736 218.875H166.384H159.033L151.587 180.072V166.581V155.054C151.587 154.025 151.774 153.005 152.14 152.044L166.384 114.548L180.629 152.044C180.995 153.005 181.182 154.025 181.182 155.054V166.581V178.851Z" stroke="white" stroke-width="0.287328"/>
<path d="M181.182 178.851L173.736 218.875H166.384H159.033L151.587 180.072V166.581V155.054C151.587 154.025 151.774 153.005 152.14 152.044L166.384 114.548L180.629 152.044C180.995 153.005 181.182 154.025 181.182 155.054V166.581V178.851Z" stroke="url(#paint1_linear_202_229)" stroke-opacity="0.2" stroke-width="0.287328"/>
</g>
<defs>
<filter id="filter0_f_202_229" x="0.8" y="0.8" width="331.4" height="424.04" filterUnits="userSpaceOnUse" color-interpolation-filters="sRGB">
<feFlood flood-opacity="0" result="BackgroundImageFix"/>
<feBlend mode="normal" in="SourceGraphic" in2="BackgroundImageFix" result="shape"/>
<feGaussianBlur stdDeviation="0.1" result="effect1_foregroundBlur_202_229"/>
</filter>
<filter id="filter1_f_202_229" x="149.267" y="111.967" width="34.2351" height="109.228" filterUnits="userSpaceOnUse" color-interpolation-filters="sRGB">
<feFlood flood-opacity="0" result="BackgroundImageFix"/>
<feBlend mode="normal" in="SourceGraphic" in2="BackgroundImageFix" result="shape"/>
<feGaussianBlur stdDeviation="1.08825" result="effect1_foregroundBlur_202_229"/>
</filter>
<filter id="filter2_f_202_229" x="150.718" y="113.418" width="31.3331" height="106.326" filterUnits="userSpaceOnUse" color-interpolation-filters="sRGB">
<feFlood flood-opacity="0" result="BackgroundImageFix"/>
<feBlend mode="normal" in="SourceGraphic" in2="BackgroundImageFix" result="shape"/>
<feGaussianBlur stdDeviation="0.362751" result="effect1_foregroundBlur_202_229"/>
</filter>
<filter id="filter3_ddi_202_229" x="150.5" y="113.926" width="31.7684" height="106.761" filterUnits="userSpaceOnUse" color-interpolation-filters="sRGB">
<feFlood flood-opacity="0" result="BackgroundImageFix"/>
<feColorMatrix in="SourceAlpha" type="matrix" values="0 0 0 0 0 0 0 0 0 0 0 0 0 0 0 0 0 0 127 0" result="hardAlpha"/>
<feOffset dy="0.933816"/>
<feGaussianBlur stdDeviation="0.35916"/>
<feColorMatrix type="matrix" values="0 0 0 0 0 0 0 0 0 0.3 0 0 0 0 0.275 0 0 0 0.7 0"/>
<feBlend mode="multiply" in2="BackgroundImageFix" result="effect1_dropShadow_202_229"/>
<feColorMatrix in="SourceAlpha" type="matrix" values="0 0 0 0 0 0 0 0 0 0 0 0 0 0 0 0 0 0 127 0" result="hardAlpha"/>
<feOffset dy="0.725503"/>
<feGaussianBlur stdDeviation="0.471577"/>
<feColorMatrix type="matrix" values="0 0 0 0 0 0 0 0 0 0.6 0 0 0 0 0.6 0 0 0 1 0"/>
<feBlend mode="color-dodge" in2="effect1_dropShadow_202_229" result="effect2_dropShadow_202_229"/>
<feBlend mode="normal" in="SourceGraphic" in2="effect2_dropShadow_202_229" result="shape"/>
<feColorMatrix in="SourceAlpha" type="matrix" values="0 0 0 0 0 0 0 0 0 0 0 0 0 0 0 0 0 0 127 0" result="hardAlpha"/>
<feOffset dx="-0.0933816" dy="0.186763"/>
<feGaussianBlur stdDeviation="0.0466908"/>
<feComposite in2="hardAlpha" operator="arithmetic" k2="-1" k3="1"/>
<feColorMatrix type="matrix" values="0 0 0 0 1 0 0 0 0 1 0 0 0 0 1 0 0 0 0.5 0"/>
<feBlend mode="normal" in2="shape" result="effect3_innerShadow_202_229"/>
</filter>
<filter id="filter4_f_202_229" x="151.3" y="114" width="30.1694" height="105.162" filterUnits="userSpaceOnUse" color-interpolation-filters="sRGB">
<feFlood flood-opacity="0" result="BackgroundImageFix"/>
<feBlend mode="normal" in="SourceGraphic" in2="BackgroundImageFix" result="shape"/>
<feGaussianBlur stdDeviation="0.071832" result="effect1_foregroundBlur_202_229"/>
</filter>
<filter id="filter5_f_202_229" x="151.348" y="114.048" width="30.0736" height="105.066" filterUnits="userSpaceOnUse" color-interpolation-filters="sRGB">
<feFlood flood-opacity="0" result="BackgroundImageFix"/>
<feBlend mode="normal" in="SourceGraphic" in2="BackgroundImageFix" result="shape"/>
<feGaussianBlur stdDeviation="0.047888" result="effect1_foregroundBlur_202_229"/>
</filter>
<filter id="filter6_f_202_229" x="151.348" y="114.048" width="30.0736" height="105.066" filterUnits="userSpaceOnUse" color-interpolation-filters="sRGB">
<feFlood flood-opacity="0" result="BackgroundImageFix"/>
<feBlend mode="normal" in="SourceGraphic" in2="BackgroundImageFix" result="shape"/>
<feGaussianBlur stdDeviation="0.047888" result="effect1_foregroundBlur_202_229"/>
</filter>
<filter id="filter7_f_202_229" x="149.267" y="111.967" width="34.2351" height="109.228" filterUnits="userSpaceOnUse" color-interpolation-filters="sRGB">
<feFlood flood-opacity="0" result="BackgroundImageFix"/>
<feBlend mode="normal" in="SourceGraphic" in2="BackgroundImageFix" result="shape"/>
<feGaussianBlur stdDeviation="1.08825" result="effect1_foregroundBlur_202_229"/>
</filter>
<filter id="filter8_f_202_229" x="150.718" y="113.418" width="31.3331" height="106.326" filterUnits="userSpaceOnUse" color-interpolation-filters="sRGB">
<feFlood flood-opacity="0" result="BackgroundImageFix"/>
<feBlend mode="normal" in="SourceGraphic" in2="BackgroundImageFix" result="shape"/>
<feGaussianBlur stdDeviation="0.362751" result="effect1_foregroundBlur_202_229"/>
</filter>
<filter id="filter9_ddi_202_229" x="150.5" y="113.926" width="31.7684" height="106.761" filterUnits="userSpaceOnUse" color-interpolation-filters="sRGB">
<feFlood flood-opacity="0" result="BackgroundImageFix"/>
<feColorMatrix in="SourceAlpha" type="matrix" values="0 0 0 0 0 0 0 0 0 0 0 0 0 0 0 0 0 0 127 0" result="hardAlpha"/>
<feOffset dy="0.933816"/>
<feGaussianBlur stdDeviation="0.35916"/>
<feColorMatrix type="matrix" values="0 0 0 0 0 0 0 0 0 0.3 0 0 0 0 0.275 0 0 0 0.7 0"/>
<feBlend mode="multiply" in2="BackgroundImageFix" result="effect1_dropShadow_202_229"/>
<feColorMatrix in="SourceAlpha" type="matrix" values="0 0 0 0 0 0 0 0 0 0 0 0 0 0 0 0 0 0 127 0" result="hardAlpha"/>
<feOffset dy="0.725503"/>
<feGaussianBlur stdDeviation="0.471577"/>
<feColorMatrix type="matrix" values="0 0 0 0 0 0 0 0 0 0.6 0 0 0 0 0.6 0 0 0 1 0"/>
<feBlend mode="color-dodge" in2="effect1_dropShadow_202_229" result="effect2_dropShadow_202_229"/>
<feBlend mode="normal" in="SourceGraphic" in2="effect2_dropShadow_202_229" result="shape"/>
<feColorMatrix in="SourceAlpha" type="matrix" values="0 0 0 0 0 0 0 0 0 0 0 0 0 0 0 0 0 0 127 0" result="hardAlpha"/>
<feOffset dx="-0.0933816" dy="0.186763"/>
<feGaussianBlur stdDeviation="0.0466908"/>
<feComposite in2="hardAlpha" operator="arithmetic" k2="-1" k3="1"/>
<feColorMatrix type="matrix" values="0 0 0 0 1 0 0 0 0 1 0 0 0 0 1 0 0 0 0.5 0"/>
<feBlend mode="normal" in2="shape" result="effect3_innerShadow_202_229"/>
</filter>
<filter id="filter10_f_202_229" x="151.3" y="114" width="30.1694" height="105.162" filterUnits="userSpaceOnUse" color-interpolation-filters="sRGB">
<feFlood flood-opacity="0" result="BackgroundImageFix"/>
<feBlend mode="normal" in="SourceGraphic" in2="BackgroundImageFix" result="shape"/>
<feGaussianBlur stdDeviation="0.071832" result="effect1_foregroundBlur_202_229"/>
</filter>
<filter id="filter11_f_202_229" x="151.348" y="114.048" width="30.0736" height="105.066" filterUnits="userSpaceOnUse" color-interpolation-filters="sRGB">
<feFlood flood-opacity="0" result="BackgroundImageFix"/>
<feBlend mode="normal" in="SourceGraphic" in2="BackgroundImageFix" result="shape"/>
<feGaussianBlur stdDeviation="0.047888" result="effect1_foregroundBlur_202_229"/>
</filter>
<filter id="filter12_f_202_229" x="151.348" y="114.048" width="30.0736" height="105.066" filterUnits="userSpaceOnUse" color-interpolation-filters="sRGB">
<feFlood flood-opacity="0" result="BackgroundImageFix"/>
<feBlend mode="normal" in="SourceGraphic" in2="BackgroundImageFix" result="shape"/>
<feGaussianBlur stdDeviation="0.047888" result="effect1_foregroundBlur_202_229"/>
</filter>
<linearGradient id="paint0_linear_202_229" x1="285.178" y1="1.00002" x2="14.3091" y2="341.367" gradientUnits="userSpaceOnUse">
<stop stop-color="#0A0A0E"/>
<stop offset="0.333333" stop-color="#0A0A0E"/>
<stop offset="0.666667" stop-color="#36364B"/>
<stop offset="1" stop-color="#0A0A0E"/>
</linearGradient>
<linearGradient id="paint1_linear_202_229" x1="166.384" y1="114.144" x2="166.384" y2="219.018" gradientUnits="userSpaceOnUse">
<stop stop-opacity="0"/>
<stop offset="1"/>
</linearGradient>
</defs>
</svg>
